<svg width="300" height="300" viewBox="0 0 300 300" fill="none" xmlns="http://www.w3.org/2000/svg">
<rect width="300" height="300" rx="70" fill="url(#paint0_linear_774_64)"/>
<path d="M32.6733 195.227V124.727H50.9659V133.673H51.3665C52.0341 131.937 53.0133 130.346 54.304 128.9C55.5947 127.431 57.197 126.263 59.1108 125.395C61.0246 124.505 63.25 124.06 65.7869 124.06C69.1695 124.06 72.3852 124.961 75.434 126.763C78.505 128.566 80.9974 131.403 82.9112 135.276C84.8473 139.148 85.8153 144.177 85.8153 150.364C85.8153 156.283 84.8918 161.19 83.0447 165.085C81.2199 168.979 78.772 171.883 75.701 173.797C72.6522 175.711 69.303 176.668 65.6534 176.668C63.25 176.668 61.1025 176.278 59.2109 175.499C57.3416 174.698 55.7393 173.619 54.4041 172.261C53.0911 170.882 52.0786 169.324 51.3665 167.588H51.0994V195.227H32.6733ZM50.6989 150.364C50.6989 152.856 51.0215 155.015 51.6669 156.839C52.3345 158.642 53.2692 160.044 54.4709 161.045C55.6948 162.025 57.1525 162.514 58.8438 162.514C60.535 162.514 61.9704 162.036 63.1499 161.079C64.3516 160.1 65.264 158.709 65.8871 156.906C66.5324 155.081 66.8551 152.901 66.8551 150.364C66.8551 147.827 66.5324 145.657 65.8871 143.854C65.264 142.03 64.3516 140.639 63.1499 139.682C61.9704 138.703 60.535 138.213 58.8438 138.213C57.1525 138.213 55.6948 138.703 54.4709 139.682C53.2692 140.639 52.3345 142.03 51.6669 143.854C51.0215 145.657 50.6989 147.827 50.6989 150.364ZM93.5346 176V124.727H111.427V134.474H111.961C112.895 130.869 114.375 128.232 116.4 126.563C118.448 124.894 120.84 124.06 123.577 124.06C124.378 124.06 125.168 124.126 125.947 124.26C126.748 124.371 127.516 124.538 128.251 124.761V140.483C127.338 140.171 126.214 139.938 124.879 139.782C123.544 139.626 122.398 139.548 121.441 139.548C119.638 139.548 118.014 139.96 116.567 140.783C115.143 141.585 114.019 142.719 113.196 144.188C112.372 145.635 111.961 147.337 111.961 149.295V176H93.5346ZM156.057 176.935C150.493 176.935 145.731 175.833 141.77 173.63C137.809 171.405 134.771 168.311 132.657 164.35C130.543 160.367 129.486 155.749 129.486 150.497C129.486 145.245 130.543 140.639 132.657 136.678C134.771 132.694 137.809 129.601 141.77 127.398C145.731 125.172 150.493 124.06 156.057 124.06C161.62 124.06 166.382 125.172 170.344 127.398C174.305 129.601 177.342 132.694 179.457 136.678C181.571 140.639 182.628 145.245 182.628 150.497C182.628 155.749 181.571 160.367 179.457 164.35C177.342 168.311 174.305 171.405 170.344 173.63C166.382 175.833 161.62 176.935 156.057 176.935ZM156.19 163.315C157.748 163.315 159.094 162.792 160.229 161.746C161.364 160.701 162.243 159.21 162.866 157.273C163.489 155.337 163.801 153.034 163.801 150.364C163.801 147.671 163.489 145.368 162.866 143.454C162.243 141.518 161.364 140.027 160.229 138.981C159.094 137.935 157.748 137.412 156.19 137.412C154.543 137.412 153.13 137.935 151.951 138.981C150.771 140.027 149.87 141.518 149.247 143.454C148.624 145.368 148.312 147.671 148.312 150.364C148.312 153.034 148.624 155.337 149.247 157.273C149.87 159.21 150.771 160.701 151.951 161.746C153.13 162.792 154.543 163.315 156.19 163.315ZM190.105 176V124.727H207.596V134.474H208.131C209.199 131.27 211.023 128.733 213.605 126.864C216.186 124.994 219.257 124.06 222.818 124.06C226.423 124.06 229.528 125.017 232.131 126.93C234.735 128.822 236.304 131.337 236.838 134.474H237.372C238.24 131.337 240.087 128.822 242.913 126.93C245.739 125.017 249.055 124.06 252.861 124.06C257.779 124.06 261.762 125.64 264.811 128.8C267.882 131.96 269.417 136.166 269.417 141.418V176H250.991V146.091C250.991 143.843 250.424 142.085 249.289 140.817C248.154 139.526 246.63 138.881 244.716 138.881C242.824 138.881 241.322 139.526 240.209 140.817C239.119 142.085 238.574 143.843 238.574 146.091V176H220.949V146.091C220.949 143.843 220.381 142.085 219.246 140.817C218.111 139.526 216.587 138.881 214.673 138.881C213.405 138.881 212.314 139.17 211.402 139.749C210.489 140.327 209.777 141.162 209.265 142.252C208.776 143.32 208.531 144.6 208.531 146.091V176H190.105Z" fill="white"/>
<defs>
<linearGradient id="paint0_linear_774_64" x1="150" y1="0" x2="150" y2="300" gradientUnits="userSpaceOnUse">
<stop stop-color="#4D4794"/>
<stop offset="1" stop-color="#6A278C"/>
</linearGradient>
</defs>
</svg>
