<svg width="1315" height="587" viewBox="0 0 1315 587" fill="none" xmlns="http://www.w3.org/2000/svg">
<path d="M537 4H615V424H537V4Z" fill="#F59B00"/>
<path d="M797 4H875V424H797V4Z" fill="#F59B00"/>
<path d="M669 180H797V248H669V180Z" fill="#F59B00"/>
<path d="M987 4H1302V72H987V4Z" fill="#F59B00"/>
<path d="M987 356H1302V424H987V356Z" fill="#F59B00"/>
<path d="M987 180H1270V248H987V180Z" fill="#F59B00"/>
<path d="M220.627 274.97H239.308C230.615 295.755 210.21 309.968 186.501 309.968C154.913 309.968 129.214 284.217 129.214 252.568C129.214 220.919 154.915 195.167 186.501 195.167C208.418 195.167 227.599 207.301 237.228 225.74H220.627C212.12 225.74 205.226 232.647 205.226 241.171V259.541C205.226 268.061 212.12 274.97 220.627 274.97ZM373 122.21V394.199C373 410.63 359.659 424 343.26 424H29.7423C13.3434 424 0.00205233 410.63 0.00205233 394.199V122.21H373ZM298.572 242.313C298.572 233.789 291.679 226.882 283.172 226.882H270.797C259.75 189.991 226.026 164.303 186.501 164.303C137.929 164.303 98.4119 203.898 98.4119 252.566C98.4119 301.234 137.929 340.829 186.501 340.829C227.769 340.829 262.518 312.804 272.019 273.826H283.172C291.679 273.826 298.572 266.919 298.572 258.395V242.313ZM0 91.3474V29.801C0 13.3697 13.3413 0 29.7423 0H343.26C359.659 0 373 13.3697 373 29.801V91.3474H0ZM128.955 48.8248C128.955 57.3491 135.848 64.2561 144.356 64.2561H166.977C175.484 64.2561 182.378 57.3491 182.378 48.8248C182.378 40.3005 175.484 33.3934 166.977 33.3934H144.356C135.85 33.3934 128.955 40.3026 128.955 48.8248ZM30.7998 48.8248C30.7998 60.9826 40.6707 70.8731 52.8046 70.8731C64.9385 70.8731 74.8094 60.9847 74.8094 48.8248C74.8094 36.6649 64.9385 26.7785 52.8046 26.7785C40.6707 26.7785 30.7998 36.6669 30.7998 48.8248Z" fill="white"/>
<path d="M48.5215 525.987V537.984H15.3296V525.987H48.5215ZM20.5283 500.305V565H4.93213V500.305H20.5283ZM59.0078 500.305V565H43.4561V500.305H59.0078ZM131.849 531.364V533.985C131.849 538.932 131.153 543.376 129.76 547.315C128.398 551.226 126.457 554.573 123.94 557.357C121.422 560.112 118.445 562.23 115.008 563.711C111.572 565.163 107.78 565.889 103.633 565.889C99.4566 565.889 95.6353 565.163 92.1695 563.711C88.7333 562.23 85.7414 560.112 83.1939 557.357C80.676 554.573 78.7209 551.226 77.3287 547.315C75.966 543.376 75.2847 538.932 75.2847 533.985V531.364C75.2847 526.417 75.966 521.973 77.3287 518.034C78.7209 514.094 80.6612 510.747 83.1495 507.992C85.6674 505.207 88.6444 503.089 92.0806 501.638C95.5464 500.157 99.3677 499.416 103.544 499.416C107.692 499.416 111.483 500.157 114.919 501.638C118.385 503.089 121.377 505.207 123.895 507.992C126.413 510.747 128.368 514.094 129.76 518.034C131.153 521.973 131.849 526.417 131.849 531.364ZM116.03 533.985V531.275C116.03 528.076 115.749 525.262 115.186 522.833C114.653 520.374 113.853 518.315 112.787 516.656C111.72 514.997 110.402 513.753 108.832 512.924C107.292 512.065 105.529 511.635 103.544 511.635C101.471 511.635 99.664 512.065 98.1236 512.924C96.5832 513.753 95.2947 514.997 94.2579 516.656C93.2211 518.315 92.4361 520.374 91.9029 522.833C91.3993 525.262 91.1475 528.076 91.1475 531.275V533.985C91.1475 537.155 91.3993 539.969 91.9029 542.428C92.4361 544.857 93.2211 546.916 94.2579 548.604C95.3243 550.292 96.6277 551.566 98.168 552.425C99.738 553.284 101.56 553.714 103.633 553.714C105.618 553.714 107.381 553.284 108.921 552.425C110.461 551.566 111.75 550.292 112.787 548.604C113.853 546.916 114.653 544.857 115.186 542.428C115.749 539.969 116.03 537.155 116.03 533.985ZM183.228 500.305H198.824V542.561C198.824 547.597 197.773 551.862 195.67 555.358C193.566 558.824 190.619 561.445 186.827 563.223C183.036 565 178.577 565.889 173.453 565.889C168.387 565.889 163.929 565 160.078 563.223C156.257 561.445 153.265 558.824 151.103 555.358C148.97 551.862 147.903 547.597 147.903 542.561V500.305H163.544V542.561C163.544 545.227 163.929 547.404 164.699 549.093C165.47 550.752 166.595 551.966 168.076 552.736C169.557 553.507 171.35 553.892 173.453 553.892C175.586 553.892 177.378 553.507 178.829 552.736C180.281 551.966 181.377 550.752 182.117 549.093C182.858 547.404 183.228 545.227 183.228 542.561V500.305ZM250.159 547.804C250.159 546.797 250.011 545.894 249.715 545.094C249.419 544.264 248.871 543.494 248.071 542.783C247.271 542.072 246.116 541.361 244.605 540.65C243.124 539.91 241.169 539.14 238.74 538.34C235.896 537.392 233.156 536.326 230.52 535.141C227.883 533.926 225.528 532.519 223.455 530.919C221.381 529.29 219.737 527.394 218.523 525.232C217.308 523.04 216.701 520.492 216.701 517.589C216.701 514.805 217.323 512.302 218.567 510.08C219.811 507.829 221.544 505.918 223.766 504.348C226.017 502.749 228.653 501.534 231.675 500.705C234.696 499.846 237.999 499.416 241.584 499.416C246.323 499.416 250.5 500.245 254.114 501.904C257.757 503.534 260.601 505.859 262.645 508.88C264.719 511.872 265.756 515.412 265.756 519.5H250.248C250.248 517.871 249.908 516.434 249.226 515.19C248.575 513.946 247.582 512.968 246.249 512.257C244.916 511.546 243.243 511.191 241.228 511.191C239.273 511.191 237.629 511.487 236.296 512.08C234.963 512.672 233.956 513.472 233.275 514.479C232.593 515.457 232.253 516.538 232.253 517.723C232.253 518.7 232.519 519.589 233.052 520.389C233.615 521.159 234.4 521.885 235.407 522.566C236.444 523.247 237.688 523.899 239.14 524.521C240.621 525.143 242.28 525.75 244.116 526.343C247.553 527.439 250.604 528.668 253.27 530.031C255.965 531.364 258.231 532.889 260.068 534.607C261.934 536.296 263.341 538.221 264.289 540.384C265.267 542.546 265.756 544.99 265.756 547.715C265.756 550.618 265.193 553.195 264.067 555.447C262.941 557.698 261.327 559.609 259.224 561.179C257.121 562.719 254.603 563.889 251.67 564.689C248.737 565.489 245.464 565.889 241.85 565.889C238.533 565.889 235.259 565.474 232.03 564.645C228.831 563.785 225.928 562.482 223.321 560.734C220.715 558.957 218.626 556.691 217.056 553.936C215.516 551.152 214.746 547.849 214.746 544.027H230.386C230.386 545.923 230.638 547.523 231.142 548.826C231.645 550.13 232.386 551.181 233.363 551.981C234.341 552.751 235.541 553.314 236.963 553.669C238.384 553.995 240.014 554.158 241.85 554.158C243.835 554.158 245.435 553.877 246.649 553.314C247.864 552.722 248.752 551.951 249.315 551.003C249.878 550.026 250.159 548.959 250.159 547.804ZM326.51 553.003V565H292.03V553.003H326.51ZM297.584 500.305V565H281.988V500.305H297.584ZM322.067 525.987V537.584H292.03V525.987H322.067ZM326.644 500.305V512.346H292.03V500.305H326.644ZM384.688 525.987V537.984H351.496V525.987H384.688ZM356.695 500.305V565H341.099V500.305H356.695ZM395.175 500.305V565H379.623V500.305H395.175ZM468.015 531.364V533.985C468.015 538.932 467.319 543.376 465.927 547.315C464.564 551.226 462.624 554.573 460.106 557.357C457.588 560.112 454.611 562.23 451.175 563.711C447.739 565.163 443.947 565.889 439.8 565.889C435.623 565.889 431.802 565.163 428.336 563.711C424.9 562.23 421.908 560.112 419.361 557.357C416.843 554.573 414.888 551.226 413.495 547.315C412.133 543.376 411.452 538.932 411.452 533.985V531.364C411.452 526.417 412.133 521.973 413.495 518.034C414.888 514.094 416.828 510.747 419.316 507.992C421.834 505.207 424.811 503.089 428.247 501.638C431.713 500.157 435.535 499.416 439.711 499.416C443.858 499.416 447.65 500.157 451.086 501.638C454.552 503.089 457.544 505.207 460.062 507.992C462.58 510.747 464.535 514.094 465.927 518.034C467.319 521.973 468.015 526.417 468.015 531.364ZM452.197 533.985V531.275C452.197 528.076 451.916 525.262 451.353 522.833C450.82 520.374 450.02 518.315 448.953 516.656C447.887 514.997 446.569 513.753 444.999 512.924C443.459 512.065 441.696 511.635 439.711 511.635C437.638 511.635 435.831 512.065 434.29 512.924C432.75 513.753 431.461 514.997 430.425 516.656C429.388 518.315 428.603 520.374 428.07 522.833C427.566 525.262 427.314 528.076 427.314 531.275V533.985C427.314 537.155 427.566 539.969 428.07 542.428C428.603 544.857 429.388 546.916 430.425 548.604C431.491 550.292 432.794 551.566 434.335 552.425C435.905 553.284 437.727 553.714 439.8 553.714C441.785 553.714 443.547 553.284 445.088 552.425C446.628 551.566 447.917 550.292 448.953 548.604C450.02 546.916 450.82 544.857 451.353 542.428C451.916 539.969 452.197 537.155 452.197 533.985ZM527.038 553.003V565H494.334V553.003H527.038ZM499.889 500.305V565H484.292V500.305H499.889ZM562.821 565H548.469L548.558 553.003H562.821C565.783 553.003 568.286 552.292 570.33 550.87C572.404 549.448 573.974 547.33 575.04 544.516C576.136 541.672 576.684 538.177 576.684 534.03V531.23C576.684 528.12 576.373 525.395 575.751 523.055C575.159 520.685 574.27 518.715 573.085 517.145C571.9 515.545 570.419 514.346 568.642 513.546C566.894 512.746 564.88 512.346 562.599 512.346H548.202V500.305H562.599C566.983 500.305 570.997 501.06 574.64 502.571C578.313 504.052 581.483 506.185 584.149 508.969C586.845 511.724 588.918 514.997 590.37 518.789C591.851 522.551 592.591 526.728 592.591 531.319V534.03C592.591 538.592 591.851 542.768 590.37 546.56C588.918 550.352 586.859 553.625 584.193 556.38C581.527 559.135 578.373 561.268 574.729 562.778C571.115 564.259 567.146 565 562.821 565ZM557.4 500.305V565H541.804V500.305H557.4ZM684.286 553.003V565H649.806V553.003H684.286ZM655.36 500.305V565H639.764V500.305H655.36ZM679.843 525.987V537.584H649.806V525.987H679.843ZM684.42 500.305V512.346H649.806V500.305H684.42ZM741.62 553.003V565H708.917V553.003H741.62ZM714.471 500.305V565H698.875V500.305H714.471ZM800.908 553.003V565H766.428V553.003H800.908ZM771.982 500.305V565H756.386V500.305H771.982ZM796.465 525.987V537.584H766.428V525.987H796.465ZM801.042 500.305V512.346H766.428V500.305H801.042ZM852.288 543.094H867.84C867.632 547.597 866.418 551.566 864.196 555.002C861.974 558.439 858.894 561.119 854.954 563.045C851.044 564.941 846.423 565.889 841.091 565.889C836.766 565.889 832.9 565.163 829.493 563.711C826.116 562.26 823.243 560.172 820.873 557.446C818.533 554.721 816.741 551.418 815.497 547.538C814.282 543.657 813.675 539.288 813.675 534.43V530.919C813.675 526.061 814.312 521.692 815.586 517.812C816.889 513.901 818.726 510.584 821.095 507.858C823.495 505.104 826.368 503 829.716 501.549C833.063 500.097 836.781 499.372 840.868 499.372C846.497 499.372 851.251 500.379 855.132 502.393C859.012 504.407 862.019 507.177 864.152 510.702C866.284 514.198 867.543 518.182 867.928 522.655H852.377C852.317 520.226 851.903 518.197 851.133 516.567C850.362 514.909 849.148 513.664 847.489 512.835C845.83 512.006 843.623 511.591 840.868 511.591C838.943 511.591 837.269 511.946 835.847 512.657C834.426 513.368 833.241 514.494 832.293 516.034C831.345 517.575 830.634 519.574 830.16 522.033C829.716 524.462 829.493 527.394 829.493 530.831V534.43C829.493 537.866 829.701 540.799 830.115 543.228C830.53 545.657 831.197 547.641 832.115 549.182C833.033 550.722 834.218 551.862 835.67 552.603C837.151 553.314 838.958 553.669 841.091 553.669C843.46 553.669 845.46 553.299 847.089 552.559C848.718 551.788 849.977 550.633 850.866 549.093C851.755 547.523 852.229 545.523 852.288 543.094ZM913.398 500.305V565H897.802V500.305H913.398ZM932.86 500.305V512.346H878.784V500.305H932.86ZM947.671 500.305H973.131C978.108 500.305 982.433 501.045 986.106 502.526C989.779 504.007 992.608 506.2 994.593 509.103C996.607 512.006 997.614 515.59 997.614 519.855C997.614 523.558 997.036 526.654 995.881 529.142C994.726 531.63 993.112 533.689 991.038 535.318C988.994 536.918 986.609 538.236 983.884 539.273L978.774 542.161H957.402L957.313 530.12H973.131C975.116 530.12 976.76 529.764 978.063 529.053C979.367 528.342 980.344 527.335 980.996 526.032C981.677 524.699 982.018 523.114 982.018 521.277C982.018 519.411 981.677 517.812 980.996 516.479C980.315 515.146 979.307 514.124 977.974 513.413C976.671 512.702 975.057 512.346 973.131 512.346H963.267V565H947.671V500.305ZM983.084 565L968.777 536.385L985.306 536.296L999.791 564.333V565H983.084ZM1069.97 531.364V533.985C1069.97 538.932 1069.27 543.376 1067.88 547.315C1066.52 551.226 1064.57 554.573 1062.06 557.357C1059.54 560.112 1056.56 562.23 1053.13 563.711C1049.69 565.163 1045.9 565.889 1041.75 565.889C1037.57 565.889 1033.75 565.163 1030.29 563.711C1026.85 562.23 1023.86 560.112 1021.31 557.357C1018.79 554.573 1016.84 551.226 1015.45 547.315C1014.08 543.376 1013.4 538.932 1013.4 533.985V531.364C1013.4 526.417 1014.08 521.973 1015.45 518.034C1016.84 514.094 1018.78 510.747 1021.27 507.992C1023.78 505.207 1026.76 503.089 1030.2 501.638C1033.66 500.157 1037.49 499.416 1041.66 499.416C1045.81 499.416 1049.6 500.157 1053.04 501.638C1056.5 503.089 1059.49 505.207 1062.01 507.992C1064.53 510.747 1066.49 514.094 1067.88 518.034C1069.27 521.973 1069.97 526.417 1069.97 531.364ZM1054.15 533.985V531.275C1054.15 528.076 1053.87 525.262 1053.3 522.833C1052.77 520.374 1051.97 518.315 1050.9 516.656C1049.84 514.997 1048.52 513.753 1046.95 512.924C1045.41 512.065 1043.65 511.635 1041.66 511.635C1039.59 511.635 1037.78 512.065 1036.24 512.924C1034.7 513.753 1033.41 514.997 1032.38 516.656C1031.34 518.315 1030.55 520.374 1030.02 522.833C1029.52 525.262 1029.27 528.076 1029.27 531.275V533.985C1029.27 537.155 1029.52 539.969 1030.02 542.428C1030.55 544.857 1031.34 546.916 1032.38 548.604C1033.44 550.292 1034.75 551.566 1036.29 552.425C1037.86 553.284 1039.68 553.714 1041.75 553.714C1043.74 553.714 1045.5 553.284 1047.04 552.425C1048.58 551.566 1049.87 550.292 1050.9 548.604C1051.97 546.916 1052.77 544.857 1053.3 542.428C1053.87 539.969 1054.15 537.155 1054.15 533.985ZM1140.27 500.305V565H1124.72L1101.84 524.743V565H1086.24V500.305H1101.84L1124.72 540.562V500.305H1140.27ZM1174.9 500.305V565H1159.35V500.305H1174.9ZM1230.86 543.094H1246.41C1246.2 547.597 1244.99 551.566 1242.77 555.002C1240.55 558.439 1237.46 561.119 1233.52 563.045C1229.61 564.941 1224.99 565.889 1219.66 565.889C1215.34 565.889 1211.47 565.163 1208.06 563.711C1204.69 562.26 1201.81 560.172 1199.44 557.446C1197.1 554.721 1195.31 551.418 1194.07 547.538C1192.85 543.657 1192.25 539.288 1192.25 534.43V530.919C1192.25 526.061 1192.88 521.692 1194.16 517.812C1195.46 513.901 1197.3 510.584 1199.67 507.858C1202.07 505.104 1204.94 503 1208.29 501.549C1211.63 500.097 1215.35 499.372 1219.44 499.372C1225.07 499.372 1229.82 500.379 1233.7 502.393C1237.58 504.407 1240.59 507.177 1242.72 510.702C1244.86 514.198 1246.11 518.182 1246.5 522.655H1230.95C1230.89 520.226 1230.47 518.197 1229.7 516.567C1228.93 514.909 1227.72 513.664 1226.06 512.835C1224.4 512.006 1222.19 511.591 1219.44 511.591C1217.51 511.591 1215.84 511.946 1214.42 512.657C1213 513.368 1211.81 514.494 1210.86 516.034C1209.92 517.575 1209.2 519.574 1208.73 522.033C1208.29 524.462 1208.06 527.394 1208.06 530.831V534.43C1208.06 537.866 1208.27 540.799 1208.69 543.228C1209.1 545.657 1209.77 547.641 1210.69 549.182C1211.6 550.722 1212.79 551.862 1214.24 552.603C1215.72 553.314 1217.53 553.669 1219.66 553.669C1222.03 553.669 1224.03 553.299 1225.66 552.559C1227.29 551.788 1228.55 550.633 1229.44 549.093C1230.33 547.523 1230.8 545.523 1230.86 543.094ZM1295.3 547.804C1295.3 546.797 1295.15 545.894 1294.86 545.094C1294.56 544.264 1294.01 543.494 1293.21 542.783C1292.41 542.072 1291.26 541.361 1289.75 540.65C1288.27 539.91 1286.31 539.14 1283.88 538.34C1281.04 537.392 1278.3 536.326 1275.66 535.141C1273.03 533.926 1270.67 532.519 1268.6 530.919C1266.52 529.29 1264.88 527.394 1263.66 525.232C1262.45 523.04 1261.84 520.492 1261.84 517.589C1261.84 514.805 1262.47 512.302 1263.71 510.08C1264.95 507.829 1266.69 505.918 1268.91 504.348C1271.16 502.749 1273.8 501.534 1276.82 500.705C1279.84 499.846 1283.14 499.416 1286.73 499.416C1291.47 499.416 1295.64 500.245 1299.26 501.904C1302.9 503.534 1305.74 505.859 1307.79 508.88C1309.86 511.872 1310.9 515.412 1310.9 519.5H1295.39C1295.39 517.871 1295.05 516.434 1294.37 515.19C1293.72 513.946 1292.72 512.968 1291.39 512.257C1290.06 511.546 1288.38 511.191 1286.37 511.191C1284.42 511.191 1282.77 511.487 1281.44 512.08C1280.11 512.672 1279.1 513.472 1278.42 514.479C1277.74 515.457 1277.39 516.538 1277.39 517.723C1277.39 518.7 1277.66 519.589 1278.19 520.389C1278.76 521.159 1279.54 521.885 1280.55 522.566C1281.59 523.247 1282.83 523.899 1284.28 524.521C1285.76 525.143 1287.42 525.75 1289.26 526.343C1292.69 527.439 1295.75 528.668 1298.41 530.031C1301.11 531.364 1303.37 532.889 1305.21 534.607C1307.08 536.296 1308.48 538.221 1309.43 540.384C1310.41 542.546 1310.9 544.99 1310.9 547.715C1310.9 550.618 1310.33 553.195 1309.21 555.447C1308.08 557.698 1306.47 559.609 1304.37 561.179C1302.26 562.719 1299.74 563.889 1296.81 564.689C1293.88 565.489 1290.61 565.889 1286.99 565.889C1283.67 565.889 1280.4 565.474 1277.17 564.645C1273.97 563.785 1271.07 562.482 1268.46 560.734C1265.86 558.957 1263.77 556.691 1262.2 553.936C1260.66 551.152 1259.89 547.849 1259.89 544.027H1275.53C1275.53 545.923 1275.78 547.523 1276.28 548.826C1276.79 550.13 1277.53 551.181 1278.51 551.981C1279.48 552.751 1280.68 553.314 1282.1 553.669C1283.53 553.995 1285.16 554.158 1286.99 554.158C1288.98 554.158 1290.58 553.877 1291.79 553.314C1293.01 552.722 1293.89 551.951 1294.46 551.003C1295.02 550.026 1295.3 548.959 1295.3 547.804Z" fill="white"/>
</svg>
