<svg width="1277" height="587" viewBox="0 0 1277 587" fill="none" xmlns="http://www.w3.org/2000/svg">
<path d="M512 4H590V424H512V4Z" fill="#F59B00"/>
<path d="M772 4H850V424H772V4Z" fill="#F59B00"/>
<path d="M644 180H772V248H644V180Z" fill="#F59B00"/>
<path d="M962 4H1277V72H962V4Z" fill="#F59B00"/>
<path d="M962 356H1277V424H962V356Z" fill="#F59B00"/>
<path d="M962 180H1245V248H962V180Z" fill="#F59B00"/>
<path d="M220.627 274.97H239.308C230.615 295.755 210.21 309.968 186.501 309.968C154.913 309.968 129.214 284.217 129.214 252.568C129.214 220.919 154.915 195.167 186.501 195.167C208.418 195.167 227.599 207.301 237.228 225.74H220.627C212.12 225.74 205.226 232.647 205.226 241.171V259.541C205.226 268.061 212.12 274.97 220.627 274.97ZM373 122.21V394.199C373 410.63 359.659 424 343.26 424H29.7423C13.3434 424 0.00205233 410.63 0.00205233 394.199V122.21H373ZM298.572 242.313C298.572 233.789 291.679 226.882 283.172 226.882H270.797C259.75 189.991 226.026 164.303 186.501 164.303C137.929 164.303 98.4119 203.898 98.4119 252.566C98.4119 301.234 137.929 340.829 186.501 340.829C227.769 340.829 262.518 312.804 272.019 273.826H283.172C291.679 273.826 298.572 266.919 298.572 258.395V242.313ZM0 91.3474V29.801C0 13.3697 13.3413 0 29.7423 0H343.26C359.659 0 373 13.3697 373 29.801V91.3474H0ZM128.955 48.8248C128.955 57.3491 135.848 64.2561 144.356 64.2561H166.977C175.484 64.2561 182.378 57.3491 182.378 48.8248C182.378 40.3005 175.484 33.3934 166.977 33.3934H144.356C135.85 33.3934 128.955 40.3026 128.955 48.8248ZM30.7998 48.8248C30.7998 60.9826 40.6707 70.8731 52.8046 70.8731C64.9385 70.8731 74.8094 60.9847 74.8094 48.8248C74.8094 36.6649 64.9385 26.7785 52.8046 26.7785C40.6707 26.7785 30.7998 36.6669 30.7998 48.8248Z" fill="white"/>
<path d="M53.8535 519.7V533.016H17.0142V519.7H53.8535ZM22.7842 491.195V563H5.47412V491.195H22.7842ZM65.4922 491.195V563H48.2314V491.195H65.4922ZM137.248 525.667V528.577C137.248 534.068 136.475 538.999 134.93 543.372C133.417 547.712 131.264 551.427 128.469 554.518C125.675 557.575 122.37 559.926 118.557 561.57C114.743 563.181 110.535 563.986 105.932 563.986C101.296 563.986 97.0547 563.181 93.208 561.57C89.3942 559.926 86.0736 557.575 83.2461 554.518C80.4515 551.427 78.2816 547.712 76.7363 543.372C75.224 538.999 74.4678 534.068 74.4678 528.577V525.667C74.4678 520.177 75.224 515.245 76.7363 510.873C78.2816 506.5 80.4351 502.785 83.1968 499.727C85.9914 496.637 89.2956 494.286 93.1094 492.675C96.9561 491.031 101.197 490.209 105.833 490.209C110.436 490.209 114.644 491.031 118.458 492.675C122.305 494.286 125.625 496.637 128.42 499.727C131.215 502.785 133.384 506.5 134.93 510.873C136.475 515.245 137.248 520.177 137.248 525.667ZM119.691 528.577V525.569C119.691 522.018 119.379 518.895 118.754 516.199C118.162 513.47 117.274 511.185 116.091 509.344C114.907 507.503 113.444 506.122 111.702 505.201C109.992 504.248 108.036 503.771 105.833 503.771C103.532 503.771 101.526 504.248 99.8164 505.201C98.1068 506.122 96.6766 507.503 95.5259 509.344C94.3752 511.185 93.5039 513.47 92.9121 516.199C92.3532 518.895 92.0737 522.018 92.0737 525.569V528.577C92.0737 532.095 92.3532 535.218 92.9121 537.947C93.5039 540.643 94.3752 542.928 95.5259 544.802C96.7095 546.676 98.1561 548.09 99.8657 549.043C101.608 549.997 103.63 550.474 105.932 550.474C108.134 550.474 110.091 549.997 111.8 549.043C113.51 548.09 114.94 546.676 116.091 544.802C117.274 542.928 118.162 540.643 118.754 537.947C119.379 535.218 119.691 532.095 119.691 528.577ZM185.183 491.195H202.493V538.095C202.493 543.684 201.326 548.419 198.992 552.298C196.657 556.145 193.386 559.055 189.178 561.027C184.969 563 180.021 563.986 174.333 563.986C168.711 563.986 163.763 563 159.489 561.027C155.248 559.055 151.927 556.145 149.527 552.298C147.16 548.419 145.977 543.684 145.977 538.095V491.195H163.336V538.095C163.336 541.054 163.763 543.471 164.618 545.345C165.473 547.186 166.722 548.534 168.366 549.389C170.01 550.243 171.999 550.671 174.333 550.671C176.701 550.671 178.69 550.243 180.301 549.389C181.912 548.534 183.128 547.186 183.95 545.345C184.772 543.471 185.183 541.054 185.183 538.095V491.195ZM250.379 543.915C250.379 542.797 250.215 541.794 249.886 540.906C249.557 539.986 248.949 539.131 248.062 538.342C247.174 537.553 245.892 536.764 244.215 535.975C242.571 535.153 240.401 534.298 237.705 533.41C234.549 532.358 231.508 531.174 228.582 529.859C225.655 528.511 223.042 526.95 220.74 525.174C218.439 523.366 216.614 521.262 215.266 518.862C213.918 516.429 213.244 513.601 213.244 510.379C213.244 507.289 213.935 504.511 215.315 502.045C216.696 499.546 218.62 497.426 221.085 495.683C223.584 493.908 226.51 492.56 229.864 491.639C233.217 490.686 236.883 490.209 240.861 490.209C246.122 490.209 250.757 491.13 254.769 492.971C258.812 494.779 261.969 497.36 264.237 500.713C266.539 504.034 267.689 507.963 267.689 512.5H250.478C250.478 510.692 250.1 509.097 249.344 507.716C248.62 506.335 247.519 505.25 246.04 504.461C244.56 503.672 242.702 503.278 240.467 503.278C238.297 503.278 236.472 503.607 234.993 504.264C233.513 504.922 232.395 505.809 231.639 506.927C230.883 508.012 230.505 509.212 230.505 510.527C230.505 511.612 230.801 512.599 231.393 513.486C232.017 514.341 232.889 515.147 234.006 515.903C235.157 516.659 236.538 517.382 238.149 518.073C239.793 518.763 241.634 519.437 243.672 520.095C247.486 521.311 250.873 522.676 253.832 524.188C256.823 525.667 259.339 527.361 261.377 529.268C263.448 531.142 265.01 533.279 266.062 535.679C267.147 538.079 267.689 540.791 267.689 543.816C267.689 547.038 267.065 549.898 265.815 552.397C264.566 554.896 262.774 557.016 260.44 558.759C258.106 560.468 255.311 561.767 252.056 562.655C248.801 563.542 245.168 563.986 241.157 563.986C237.475 563.986 233.842 563.526 230.258 562.605C226.708 561.652 223.486 560.205 220.592 558.266C217.699 556.293 215.381 553.778 213.639 550.72C211.929 547.63 211.074 543.964 211.074 539.723H228.434C228.434 541.827 228.713 543.602 229.272 545.049C229.831 546.495 230.653 547.663 231.738 548.55C232.823 549.405 234.154 550.03 235.732 550.424C237.311 550.786 239.119 550.967 241.157 550.967C243.36 550.967 245.135 550.654 246.483 550.03C247.831 549.372 248.818 548.517 249.442 547.465C250.067 546.38 250.379 545.197 250.379 543.915ZM326.031 549.685V563H287.761V549.685H326.031ZM293.926 491.195V563H276.616V491.195H293.926ZM321.099 519.7V532.572H287.761V519.7H321.099ZM326.179 491.195V504.56H287.761V491.195H326.179ZM381.512 519.7V533.016H344.672V519.7H381.512ZM350.442 491.195V563H333.132V491.195H350.442ZM393.15 491.195V563H375.89V491.195H393.15ZM464.906 525.667V528.577C464.906 534.068 464.133 538.999 462.588 543.372C461.076 547.712 458.922 551.427 456.127 554.518C453.333 557.575 450.029 559.926 446.215 561.57C442.401 563.181 438.193 563.986 433.59 563.986C428.954 563.986 424.713 563.181 420.866 561.57C417.052 559.926 413.732 557.575 410.904 554.518C408.11 551.427 405.94 547.712 404.395 543.372C402.882 538.999 402.126 534.068 402.126 528.577V525.667C402.126 520.177 402.882 515.245 404.395 510.873C405.94 506.5 408.093 502.785 410.855 499.727C413.65 496.637 416.954 494.286 420.768 492.675C424.614 491.031 428.855 490.209 433.491 490.209C438.094 490.209 442.302 491.031 446.116 492.675C449.963 494.286 453.284 496.637 456.078 499.727C458.873 502.785 461.043 506.5 462.588 510.873C464.133 515.245 464.906 520.177 464.906 525.667ZM447.349 528.577V525.569C447.349 522.018 447.037 518.895 446.412 516.199C445.82 513.47 444.933 511.185 443.749 509.344C442.565 507.503 441.102 506.122 439.36 505.201C437.65 504.248 435.694 503.771 433.491 503.771C431.19 503.771 429.184 504.248 427.475 505.201C425.765 506.122 424.335 507.503 423.184 509.344C422.033 511.185 421.162 513.47 420.57 516.199C420.011 518.895 419.732 522.018 419.732 525.569V528.577C419.732 532.095 420.011 535.218 420.57 537.947C421.162 540.643 422.033 542.928 423.184 544.802C424.368 546.676 425.814 548.09 427.524 549.043C429.266 549.997 431.288 550.474 433.59 550.474C435.793 550.474 437.749 549.997 439.458 549.043C441.168 548.09 442.598 546.676 443.749 544.802C444.933 542.928 445.82 540.643 446.412 537.947C447.037 535.218 447.349 532.095 447.349 528.577ZM521.324 549.685V563H485.027V549.685H521.324ZM491.191 491.195V563H473.881V491.195H491.191ZM551.949 563H536.02L536.119 549.685H551.949C555.237 549.685 558.015 548.896 560.284 547.317C562.585 545.739 564.328 543.389 565.511 540.265C566.728 537.109 567.336 533.229 567.336 528.626V525.52C567.336 522.067 566.991 519.043 566.3 516.445C565.643 513.815 564.656 511.629 563.341 509.886C562.026 508.111 560.382 506.779 558.41 505.892C556.47 505.004 554.234 504.56 551.703 504.56H535.724V491.195H551.703C556.569 491.195 561.023 492.034 565.067 493.71C569.144 495.354 572.662 497.722 575.621 500.812C578.613 503.87 580.914 507.503 582.525 511.711C584.169 515.886 584.991 520.522 584.991 525.618V528.626C584.991 533.69 584.169 538.325 582.525 542.534C580.914 546.742 578.629 550.375 575.67 553.433C572.711 556.49 569.21 558.857 565.166 560.534C561.155 562.178 556.749 563 551.949 563ZM545.933 491.195V563H528.623V491.195H545.933ZM668.583 549.685V563H630.313V549.685H668.583ZM636.478 491.195V563H619.167V491.195H636.478ZM663.651 519.7V532.572H630.313V519.7H663.651ZM668.73 491.195V504.56H630.313V491.195H668.73ZM723.126 549.685V563H686.83V549.685H723.126ZM692.994 491.195V563H675.684V491.195H692.994ZM779.84 549.685V563H741.571V549.685H779.84ZM747.735 491.195V563H730.425V491.195H747.735ZM774.909 519.7V532.572H741.571V519.7H774.909ZM779.988 491.195V504.56H741.571V491.195H779.988ZM827.776 538.687H845.037C844.806 543.684 843.458 548.09 840.993 551.904C838.527 555.718 835.108 558.693 830.735 560.83C826.395 562.934 821.266 563.986 815.348 563.986C810.548 563.986 806.257 563.181 802.477 561.57C798.729 559.959 795.539 557.641 792.909 554.616C790.312 551.591 788.323 547.926 786.942 543.619C785.594 539.312 784.92 534.462 784.92 529.07V525.174C784.92 519.782 785.627 514.933 787.041 510.626C788.487 506.286 790.526 502.604 793.156 499.579C795.819 496.521 799.008 494.187 802.723 492.576C806.438 490.965 810.564 490.16 815.102 490.16C821.348 490.16 826.625 491.278 830.932 493.513C835.239 495.749 838.576 498.823 840.943 502.735C843.311 506.615 844.708 511.037 845.135 516.001H827.875C827.809 513.306 827.348 511.053 826.494 509.245C825.639 507.404 824.291 506.023 822.45 505.103C820.609 504.182 818.159 503.722 815.102 503.722C812.965 503.722 811.107 504.116 809.529 504.905C807.951 505.694 806.636 506.944 805.583 508.653C804.531 510.363 803.742 512.582 803.216 515.311C802.723 518.007 802.477 521.262 802.477 525.076V529.07C802.477 532.884 802.707 536.139 803.167 538.835C803.627 541.531 804.367 543.734 805.386 545.443C806.405 547.153 807.721 548.419 809.332 549.241C810.975 550.03 812.981 550.424 815.348 550.424C817.978 550.424 820.198 550.013 822.006 549.191C823.814 548.337 825.211 547.054 826.198 545.345C827.184 543.602 827.71 541.383 827.776 538.687ZM886.512 491.195V563H869.202V491.195H886.512ZM908.112 491.195V504.56H848.094V491.195H908.112ZM915.46 491.195H943.719C949.242 491.195 954.042 492.017 958.119 493.661C962.196 495.305 965.336 497.738 967.539 500.96C969.774 504.182 970.892 508.16 970.892 512.895C970.892 517.004 970.251 520.44 968.969 523.202C967.687 525.963 965.895 528.248 963.593 530.057C961.325 531.832 958.678 533.295 955.653 534.446L949.982 537.651H926.261L926.162 524.287H943.719C945.922 524.287 947.746 523.892 949.193 523.103C950.639 522.314 951.724 521.196 952.448 519.75C953.204 518.27 953.582 516.511 953.582 514.473C953.582 512.401 953.204 510.626 952.448 509.146C951.692 507.667 950.574 506.533 949.094 505.744C947.648 504.955 945.856 504.56 943.719 504.56H932.771V563H915.46V491.195ZM954.766 563L938.886 531.24L957.231 531.142L973.309 562.26V563H954.766ZM1042.1 525.667V528.577C1042.1 534.068 1041.33 538.999 1039.79 543.372C1038.27 547.712 1036.12 551.427 1033.33 554.518C1030.53 557.575 1027.23 559.926 1023.41 561.57C1019.6 563.181 1015.39 563.986 1010.79 563.986C1006.15 563.986 1001.91 563.181 998.065 561.57C994.252 559.926 990.931 557.575 988.104 554.518C985.309 551.427 983.139 547.712 981.594 543.372C980.081 538.999 979.325 534.068 979.325 528.577V525.667C979.325 520.177 980.081 515.245 981.594 510.873C983.139 506.5 985.292 502.785 988.054 499.727C990.849 496.637 994.153 494.286 997.967 492.675C1001.81 491.031 1006.05 490.209 1010.69 490.209C1015.29 490.209 1019.5 491.031 1023.32 492.675C1027.16 494.286 1030.48 496.637 1033.28 499.727C1036.07 502.785 1038.24 506.5 1039.79 510.873C1041.33 515.245 1042.1 520.177 1042.1 525.667ZM1024.55 528.577V525.569C1024.55 522.018 1024.24 518.895 1023.61 516.199C1023.02 513.47 1022.13 511.185 1020.95 509.344C1019.76 507.503 1018.3 506.122 1016.56 505.201C1014.85 504.248 1012.89 503.771 1010.69 503.771C1008.39 503.771 1006.38 504.248 1004.67 505.201C1002.96 506.122 1001.53 507.503 1000.38 509.344C999.233 511.185 998.361 513.47 997.77 516.199C997.211 518.895 996.931 522.018 996.931 525.569V528.577C996.931 532.095 997.211 535.218 997.77 537.947C998.361 540.643 999.233 542.928 1000.38 544.802C1001.57 546.676 1003.01 548.09 1004.72 549.043C1006.47 549.997 1008.49 550.474 1010.79 550.474C1012.99 550.474 1014.95 549.997 1016.66 549.043C1018.37 548.09 1019.8 546.676 1020.95 544.802C1022.13 542.928 1023.02 540.643 1023.61 537.947C1024.24 535.218 1024.55 532.095 1024.55 528.577ZM1111.05 491.195V563H1093.79L1068.39 518.319V563H1051.08V491.195H1068.39L1093.79 535.876V491.195H1111.05ZM1140.39 491.195V563H1123.13V491.195H1140.39ZM1193.41 538.687H1210.67C1210.44 543.684 1209.09 548.09 1206.62 551.904C1204.16 555.718 1200.74 558.693 1196.37 560.83C1192.03 562.934 1186.9 563.986 1180.98 563.986C1176.18 563.986 1171.89 563.181 1168.11 561.57C1164.36 559.959 1161.17 557.641 1158.54 554.616C1155.94 551.591 1153.95 547.926 1152.57 543.619C1151.23 539.312 1150.55 534.462 1150.55 529.07V525.174C1150.55 519.782 1151.26 514.933 1152.67 510.626C1154.12 506.286 1156.16 502.604 1158.79 499.579C1161.45 496.521 1164.64 494.187 1168.35 492.576C1172.07 490.965 1176.2 490.16 1180.73 490.16C1186.98 490.16 1192.26 491.278 1196.56 493.513C1200.87 495.749 1204.21 498.823 1206.58 502.735C1208.94 506.615 1210.34 511.037 1210.77 516.001H1193.51C1193.44 513.306 1192.98 511.053 1192.13 509.245C1191.27 507.404 1189.92 506.023 1188.08 505.103C1186.24 504.182 1183.79 503.722 1180.73 503.722C1178.6 503.722 1176.74 504.116 1175.16 504.905C1173.58 505.694 1172.27 506.944 1171.22 508.653C1170.16 510.363 1169.37 512.582 1168.85 515.311C1168.35 518.007 1168.11 521.262 1168.11 525.076V529.07C1168.11 532.884 1168.34 536.139 1168.8 538.835C1169.26 541.531 1170 543.734 1171.02 545.443C1172.04 547.153 1173.35 548.419 1174.96 549.241C1176.61 550.03 1178.61 550.424 1180.98 550.424C1183.61 550.424 1185.83 550.013 1187.64 549.191C1189.45 548.337 1190.84 547.054 1191.83 545.345C1192.82 543.602 1193.34 541.383 1193.41 538.687ZM1255.84 543.915C1255.84 542.797 1255.68 541.794 1255.35 540.906C1255.02 539.986 1254.41 539.131 1253.52 538.342C1252.64 537.553 1251.35 536.764 1249.68 535.975C1248.03 535.153 1245.86 534.298 1243.17 533.41C1240.01 532.358 1236.97 531.174 1234.04 529.859C1231.12 528.511 1228.5 526.95 1226.2 525.174C1223.9 523.366 1222.08 521.262 1220.73 518.862C1219.38 516.429 1218.71 513.601 1218.71 510.379C1218.71 507.289 1219.4 504.511 1220.78 502.045C1222.16 499.546 1224.08 497.426 1226.55 495.683C1229.05 493.908 1231.97 492.56 1235.33 491.639C1238.68 490.686 1242.35 490.209 1246.32 490.209C1251.58 490.209 1256.22 491.13 1260.23 492.971C1264.28 494.779 1267.43 497.36 1269.7 500.713C1272 504.034 1273.15 507.963 1273.15 512.5H1255.94C1255.94 510.692 1255.56 509.097 1254.81 507.716C1254.08 506.335 1252.98 505.25 1251.5 504.461C1250.02 503.672 1248.17 503.278 1245.93 503.278C1243.76 503.278 1241.94 503.607 1240.46 504.264C1238.98 504.922 1237.86 505.809 1237.1 506.927C1236.35 508.012 1235.97 509.212 1235.97 510.527C1235.97 511.612 1236.26 512.599 1236.86 513.486C1237.48 514.341 1238.35 515.147 1239.47 515.903C1240.62 516.659 1242 517.382 1243.61 518.073C1245.26 518.763 1247.1 519.437 1249.14 520.095C1252.95 521.311 1256.34 522.676 1259.29 524.188C1262.29 525.667 1264.8 527.361 1266.84 529.268C1268.91 531.142 1270.47 533.279 1271.52 535.679C1272.61 538.079 1273.15 540.791 1273.15 543.816C1273.15 547.038 1272.53 549.898 1271.28 552.397C1270.03 554.896 1268.24 557.016 1265.9 558.759C1263.57 560.468 1260.77 561.767 1257.52 562.655C1254.26 563.542 1250.63 563.986 1246.62 563.986C1242.94 563.986 1239.3 563.526 1235.72 562.605C1232.17 561.652 1228.95 560.205 1226.06 558.266C1223.16 556.293 1220.84 553.778 1219.1 550.72C1217.39 547.63 1216.54 543.964 1216.54 539.723H1233.9C1233.9 541.827 1234.18 543.602 1234.73 545.049C1235.29 546.495 1236.12 547.663 1237.2 548.55C1238.29 549.405 1239.62 550.03 1241.2 550.424C1242.77 550.786 1244.58 550.967 1246.62 550.967C1248.82 550.967 1250.6 550.654 1251.95 550.03C1253.29 549.372 1254.28 548.517 1254.91 547.465C1255.53 546.38 1255.84 545.197 1255.84 543.915Z" fill="white"/>
</svg>
