<svg width="1444" height="1267" viewBox="0 0 1444 1267" fill="none" xmlns="http://www.w3.org/2000/svg">
<path d="M133.809 968.465V994.621H41.0508V968.465H133.809ZM50.1328 895.688V1072H16.832V895.688H50.1328ZM158.512 895.688V1072H125.211V895.688H158.512ZM335.188 979.363V988.445C335.188 1001.77 333.411 1013.75 329.859 1024.41C326.307 1034.99 321.262 1043.99 314.723 1051.41C308.184 1058.84 300.393 1064.53 291.352 1068.49C282.31 1072.44 272.259 1074.42 261.199 1074.42C250.301 1074.42 240.29 1072.44 231.168 1068.49C222.126 1064.53 214.296 1058.84 207.676 1051.41C201.056 1043.99 195.93 1034.99 192.297 1024.41C188.664 1013.75 186.848 1001.77 186.848 988.445V979.363C186.848 965.962 188.664 953.974 192.297 943.398C195.93 932.823 201.016 923.822 207.555 916.395C214.094 908.887 221.884 903.155 230.926 899.199C240.048 895.243 250.059 893.266 260.957 893.266C272.017 893.266 282.068 895.243 291.109 899.199C300.151 903.155 307.941 908.887 314.48 916.395C321.1 923.822 326.186 932.823 329.738 943.398C333.371 953.974 335.188 965.962 335.188 979.363ZM301.523 988.445V979.121C301.523 969.514 300.635 961.078 298.859 953.812C297.083 946.466 294.46 940.29 290.988 935.285C287.517 930.28 283.238 926.526 278.152 924.023C273.066 921.44 267.335 920.148 260.957 920.148C254.499 920.148 248.767 921.44 243.762 924.023C238.837 926.526 234.639 930.28 231.168 935.285C227.697 940.29 225.033 946.466 223.176 953.812C221.4 961.078 220.512 969.514 220.512 979.121V988.445C220.512 997.971 221.4 1006.41 223.176 1013.75C225.033 1021.1 227.697 1027.32 231.168 1032.4C234.72 1037.41 238.999 1041.2 244.004 1043.79C249.009 1046.37 254.741 1047.66 261.199 1047.66C267.658 1047.66 273.389 1046.37 278.395 1043.79C283.4 1041.2 287.598 1037.41 290.988 1032.4C294.46 1027.32 297.083 1021.1 298.859 1013.75C300.635 1006.41 301.523 997.971 301.523 988.445ZM461.488 895.688H494.789V1012.79C494.789 1026.27 491.883 1037.61 486.07 1046.81C480.258 1055.93 472.346 1062.84 462.336 1067.52C452.326 1072.12 440.943 1074.42 428.188 1074.42C415.271 1074.42 403.767 1072.12 393.676 1067.52C383.585 1062.84 375.673 1055.93 369.941 1046.81C364.21 1037.61 361.344 1026.27 361.344 1012.79V895.688H394.645V1012.79C394.645 1021.02 396.017 1027.76 398.762 1033.01C401.507 1038.17 405.382 1042.01 410.387 1044.51C415.392 1047.01 421.326 1048.27 428.188 1048.27C435.13 1048.27 441.064 1047.01 445.988 1044.51C450.993 1042.01 454.828 1038.17 457.492 1033.01C460.156 1027.76 461.488 1021.02 461.488 1012.79V895.688ZM618.668 1026.23C618.668 1022.84 618.143 1019.81 617.094 1017.14C616.125 1014.4 614.309 1011.94 611.645 1009.76C609.061 1007.5 605.388 1005.32 600.625 1003.22C595.943 1001.04 589.888 998.779 582.461 996.438C574.227 993.854 566.557 990.948 559.453 987.719C552.349 984.49 546.092 980.736 540.684 976.457C535.355 972.178 531.198 967.254 528.211 961.684C525.224 956.033 523.73 949.493 523.73 942.066C523.73 934.801 525.264 928.181 528.332 922.207C531.48 916.233 535.921 911.107 541.652 906.828C547.384 902.469 554.125 899.118 561.875 896.777C569.706 894.436 578.344 893.266 587.789 893.266C600.867 893.266 612.169 895.647 621.695 900.41C631.302 905.173 638.729 911.632 643.977 919.785C649.224 927.939 651.848 937.102 651.848 947.273H618.668C618.668 941.784 617.497 936.94 615.156 932.742C612.896 928.544 609.424 925.234 604.742 922.812C600.141 920.391 594.328 919.18 587.305 919.18C580.523 919.18 574.872 920.189 570.352 922.207C565.911 924.225 562.561 926.97 560.301 930.441C558.121 933.913 557.031 937.788 557.031 942.066C557.031 945.296 557.798 948.202 559.332 950.785C560.866 953.288 563.167 955.669 566.234 957.93C569.302 960.109 573.096 962.168 577.617 964.105C582.219 965.962 587.547 967.819 593.602 969.676C603.289 972.582 611.766 975.811 619.031 979.363C626.378 982.915 632.473 986.952 637.316 991.473C642.241 995.993 645.914 1001.08 648.336 1006.73C650.839 1012.38 652.09 1018.8 652.09 1025.98C652.09 1033.57 650.596 1040.35 647.609 1046.33C644.622 1052.3 640.344 1057.39 634.773 1061.59C629.203 1065.78 622.503 1068.97 614.672 1071.15C606.922 1073.33 598.243 1074.42 588.637 1074.42C580.079 1074.42 571.603 1073.29 563.207 1071.03C554.892 1068.69 547.344 1065.22 540.562 1060.62C533.781 1055.93 528.372 1050.04 524.336 1042.94C520.299 1035.75 518.281 1027.36 518.281 1017.75H551.703C551.703 1023.32 552.591 1028.08 554.367 1032.04C556.224 1035.91 558.807 1039.1 562.117 1041.61C565.508 1044.03 569.464 1045.8 573.984 1046.93C578.505 1048.06 583.389 1048.63 588.637 1048.63C595.418 1048.63 600.988 1047.7 605.348 1045.84C609.788 1043.91 613.098 1041.24 615.277 1037.85C617.538 1034.46 618.668 1030.59 618.668 1026.23ZM794.617 1045.84V1072H700.891V1045.84H794.617ZM711.062 895.688V1072H677.762V895.688H711.062ZM782.387 968.465V994.016H700.891V968.465H782.387ZM794.254 895.688V921.965H700.891V895.688H794.254ZM934.723 968.465V994.621H841.965V968.465H934.723ZM851.047 895.688V1072H817.746V895.688H851.047ZM959.426 895.688V1072H926.125V895.688H959.426ZM1136.1 979.363V988.445C1136.1 1001.77 1134.33 1013.75 1130.77 1024.41C1127.22 1034.99 1122.18 1043.99 1115.64 1051.41C1109.1 1058.84 1101.31 1064.53 1092.27 1068.49C1083.22 1072.44 1073.17 1074.42 1062.11 1074.42C1051.21 1074.42 1041.2 1072.44 1032.08 1068.49C1023.04 1064.53 1015.21 1058.84 1008.59 1051.41C1001.97 1043.99 996.844 1034.99 993.211 1024.41C989.578 1013.75 987.762 1001.77 987.762 988.445V979.363C987.762 965.962 989.578 953.974 993.211 943.398C996.844 932.823 1001.93 923.822 1008.47 916.395C1015.01 908.887 1022.8 903.155 1031.84 899.199C1040.96 895.243 1050.97 893.266 1061.87 893.266C1072.93 893.266 1082.98 895.243 1092.02 899.199C1101.07 903.155 1108.86 908.887 1115.39 916.395C1122.01 923.822 1127.1 932.823 1130.65 943.398C1134.29 953.974 1136.1 965.962 1136.1 979.363ZM1102.44 988.445V979.121C1102.44 969.514 1101.55 961.078 1099.77 953.812C1098 946.466 1095.37 940.29 1091.9 935.285C1088.43 930.28 1084.15 926.526 1079.07 924.023C1073.98 921.44 1068.25 920.148 1061.87 920.148C1055.41 920.148 1049.68 921.44 1044.68 924.023C1039.75 926.526 1035.55 930.28 1032.08 935.285C1028.61 940.29 1025.95 946.466 1024.09 953.812C1022.31 961.078 1021.43 969.514 1021.43 979.121V988.445C1021.43 997.971 1022.31 1006.41 1024.09 1013.75C1025.95 1021.1 1028.61 1027.32 1032.08 1032.4C1035.63 1037.41 1039.91 1041.2 1044.92 1043.79C1049.92 1046.37 1055.65 1047.66 1062.11 1047.66C1068.57 1047.66 1074.3 1046.37 1079.31 1043.79C1084.31 1041.2 1088.51 1037.41 1091.9 1032.4C1095.37 1027.32 1098 1021.1 1099.77 1013.75C1101.55 1006.41 1102.44 997.971 1102.44 988.445ZM1276.21 1045.84V1072H1187.57V1045.84H1276.21ZM1197.62 895.688V1072H1164.32V895.688H1197.62ZM1351.16 1072H1313.14L1313.38 1045.84H1351.16C1361.42 1045.84 1370.01 1043.58 1376.96 1039.06C1383.9 1034.46 1389.15 1027.88 1392.7 1019.32C1396.25 1010.69 1398.03 1000.35 1398.03 988.324V979.242C1398.03 969.958 1397.02 961.764 1395 954.66C1392.98 947.556 1389.99 941.582 1386.04 936.738C1382.16 931.895 1377.36 928.221 1371.63 925.719C1365.9 923.216 1359.32 921.965 1351.89 921.965H1312.41V895.688H1351.89C1363.68 895.688 1374.41 897.665 1384.1 901.621C1393.87 905.577 1402.31 911.268 1409.41 918.695C1416.6 926.042 1422.08 934.841 1425.88 945.094C1429.75 955.346 1431.69 966.81 1431.69 979.484V988.324C1431.69 1000.92 1429.75 1012.38 1425.88 1022.71C1422.08 1032.97 1416.6 1041.77 1409.41 1049.11C1402.31 1056.46 1393.83 1062.11 1383.98 1066.07C1374.13 1070.02 1363.19 1072 1351.16 1072ZM1331.79 895.688V1072H1298.49V895.688H1331.79Z" fill="white"/>
<path d="M378.922 1222.71V1236H331.303V1222.71H378.922ZM336.471 1146.42V1236H319.552V1146.42H336.471ZM372.708 1183.4V1196.38H331.303V1183.4H372.708ZM378.737 1146.42V1159.77H331.303V1146.42H378.737ZM447.521 1222.71V1236H402.485V1222.71H447.521ZM407.592 1146.42V1236H390.673V1146.42H407.592ZM518.211 1222.71V1236H470.592V1222.71H518.211ZM475.76 1146.42V1236H458.841V1146.42H475.76ZM511.997 1183.4V1196.38H470.592V1183.4H511.997ZM518.026 1146.42V1159.77H470.592V1146.42H518.026ZM582.38 1206.53H599.299C598.848 1212.52 597.187 1217.83 594.315 1222.46C591.444 1227.06 587.445 1230.67 582.318 1233.29C577.191 1235.92 570.978 1237.23 563.677 1237.23C558.058 1237.23 552.992 1236.25 548.48 1234.28C544.01 1232.27 540.175 1229.42 536.976 1225.73C533.817 1221.99 531.397 1217.52 529.716 1212.31C528.034 1207.06 527.193 1201.18 527.193 1194.66V1187.83C527.193 1181.31 528.055 1175.42 529.777 1170.17C531.5 1164.92 533.961 1160.45 537.16 1156.76C540.4 1153.03 544.276 1150.15 548.788 1148.14C553.341 1146.13 558.427 1145.13 564.046 1145.13C571.347 1145.13 577.52 1146.48 582.564 1149.19C587.609 1151.86 591.526 1155.53 594.315 1160.2C597.104 1164.88 598.786 1170.25 599.36 1176.32H582.441C582.113 1172.55 581.293 1169.35 579.98 1166.72C578.709 1164.1 576.781 1162.11 574.197 1160.76C571.654 1159.36 568.271 1158.67 564.046 1158.67C560.765 1158.67 557.873 1159.28 555.371 1160.51C552.91 1161.74 550.859 1163.59 549.219 1166.05C547.578 1168.47 546.348 1171.5 545.527 1175.15C544.707 1178.76 544.297 1182.95 544.297 1187.7V1194.66C544.297 1199.21 544.666 1203.29 545.404 1206.9C546.143 1210.51 547.291 1213.56 548.85 1216.07C550.408 1218.57 552.418 1220.48 554.879 1221.79C557.34 1223.1 560.272 1223.76 563.677 1223.76C567.819 1223.76 571.183 1223.1 573.767 1221.79C576.392 1220.48 578.381 1218.55 579.734 1216C581.129 1213.46 582.011 1210.3 582.38 1206.53ZM649.01 1146.42V1236H632.152V1146.42H649.01ZM676.818 1146.42V1159.77H604.651V1146.42H676.818ZM688.077 1146.42H720.623C727.432 1146.42 733.276 1147.45 738.157 1149.5C743.038 1151.55 746.791 1154.58 749.416 1158.6C752.041 1162.62 753.354 1167.57 753.354 1173.43C753.354 1178.07 752.533 1182.08 750.893 1185.49C749.252 1188.89 746.935 1191.74 743.94 1194.04C740.987 1196.34 737.501 1198.14 733.481 1199.46L728.19 1202.16H699.459L699.336 1188.81H720.808C724.294 1188.81 727.186 1188.2 729.482 1186.97C731.779 1185.74 733.502 1184.03 734.65 1181.86C735.84 1179.69 736.435 1177.2 736.435 1174.42C736.435 1171.42 735.86 1168.84 734.712 1166.66C733.563 1164.45 731.82 1162.75 729.482 1161.56C727.145 1160.37 724.191 1159.77 720.623 1159.77H704.996V1236H688.077V1146.42ZM738.649 1236L717.916 1195.89L735.819 1195.83L756.799 1235.14V1236H738.649ZM840.717 1188.93V1193.55C840.717 1200.32 839.814 1206.41 838.01 1211.82C836.205 1217.19 833.642 1221.77 830.319 1225.54C826.997 1229.31 823.039 1232.21 818.445 1234.22C813.852 1236.23 808.745 1237.23 803.126 1237.23C797.589 1237.23 792.503 1236.23 787.868 1234.22C783.274 1232.21 779.296 1229.31 775.933 1225.54C772.569 1221.77 769.965 1217.19 768.119 1211.82C766.273 1206.41 765.351 1200.32 765.351 1193.55V1188.93C765.351 1182.13 766.273 1176.04 768.119 1170.66C769.965 1165.29 772.549 1160.72 775.871 1156.94C779.193 1153.13 783.151 1150.22 787.745 1148.21C792.38 1146.2 797.466 1145.19 803.003 1145.19C808.622 1145.19 813.729 1146.2 818.322 1148.21C822.916 1150.22 826.874 1153.13 830.196 1156.94C833.56 1160.72 836.144 1165.29 837.948 1170.66C839.794 1176.04 840.717 1182.13 840.717 1188.93ZM823.613 1193.55V1188.81C823.613 1183.93 823.162 1179.64 822.26 1175.95C821.357 1172.22 820.024 1169.08 818.261 1166.54C816.497 1164 814.323 1162.09 811.739 1160.82C809.155 1159.51 806.243 1158.85 803.003 1158.85C799.722 1158.85 796.81 1159.51 794.267 1160.82C791.765 1162.09 789.632 1164 787.868 1166.54C786.104 1169.08 784.751 1172.22 783.808 1175.95C782.905 1179.64 782.454 1183.93 782.454 1188.81V1193.55C782.454 1198.39 782.905 1202.67 783.808 1206.41C784.751 1210.14 786.104 1213.3 787.868 1215.88C789.673 1218.42 791.847 1220.35 794.39 1221.67C796.933 1222.98 799.845 1223.63 803.126 1223.63C806.407 1223.63 809.319 1222.98 811.862 1221.67C814.405 1220.35 816.538 1218.42 818.261 1215.88C820.024 1213.3 821.357 1210.14 822.26 1206.41C823.162 1202.67 823.613 1198.39 823.613 1193.55ZM927.034 1146.42V1236H910.054L871.971 1173.86V1236H855.052V1146.42H871.971L910.177 1208.62V1146.42H927.034ZM962.287 1146.42V1236H945.368V1146.42H962.287ZM1032.98 1206.53H1049.9C1049.45 1212.52 1047.78 1217.83 1044.91 1222.46C1042.04 1227.06 1038.04 1230.67 1032.92 1233.29C1027.79 1235.92 1021.58 1237.23 1014.27 1237.23C1008.66 1237.23 1003.59 1236.25 999.078 1234.28C994.607 1232.27 990.772 1229.42 987.573 1225.73C984.415 1221.99 981.995 1217.52 980.313 1212.31C978.632 1207.06 977.791 1201.18 977.791 1194.66V1187.83C977.791 1181.31 978.652 1175.42 980.375 1170.17C982.098 1164.92 984.559 1160.45 987.758 1156.76C990.998 1153.03 994.874 1150.15 999.386 1148.14C1003.94 1146.13 1009.02 1145.13 1014.64 1145.13C1021.94 1145.13 1028.12 1146.48 1033.16 1149.19C1038.21 1151.86 1042.12 1155.53 1044.91 1160.2C1047.7 1164.88 1049.38 1170.25 1049.96 1176.32H1033.04C1032.71 1172.55 1031.89 1169.35 1030.58 1166.72C1029.31 1164.1 1027.38 1162.11 1024.79 1160.76C1022.25 1159.36 1018.87 1158.67 1014.64 1158.67C1011.36 1158.67 1008.47 1159.28 1005.97 1160.51C1003.51 1161.74 1001.46 1163.59 999.816 1166.05C998.176 1168.47 996.945 1171.5 996.125 1175.15C995.305 1178.76 994.895 1182.95 994.895 1187.7V1194.66C994.895 1199.21 995.264 1203.29 996.002 1206.9C996.74 1210.51 997.889 1213.56 999.447 1216.07C1001.01 1218.57 1003.02 1220.48 1005.48 1221.79C1007.94 1223.1 1010.87 1223.76 1014.27 1223.76C1018.42 1223.76 1021.78 1223.1 1024.36 1221.79C1026.99 1220.48 1028.98 1218.55 1030.33 1216C1031.73 1213.46 1032.61 1210.3 1032.98 1206.53ZM1109.88 1212.74C1109.88 1211.02 1109.62 1209.48 1109.08 1208.13C1108.59 1206.74 1107.67 1205.48 1106.31 1204.38C1105 1203.23 1103.13 1202.12 1100.71 1201.05C1098.34 1199.95 1095.26 1198.8 1091.49 1197.61C1087.3 1196.3 1083.41 1194.82 1079.8 1193.18C1076.19 1191.54 1073.01 1189.63 1070.26 1187.46C1067.55 1185.28 1065.44 1182.78 1063.92 1179.95C1062.41 1177.08 1061.65 1173.76 1061.65 1169.99C1061.65 1166.29 1062.43 1162.93 1063.99 1159.9C1065.58 1156.86 1067.84 1154.26 1070.75 1152.08C1073.67 1149.87 1077.09 1148.17 1081.03 1146.98C1085.01 1145.79 1089.39 1145.19 1094.19 1145.19C1100.84 1145.19 1106.58 1146.4 1111.42 1148.82C1116.3 1151.24 1120.07 1154.52 1122.74 1158.67C1125.41 1162.81 1126.74 1167.46 1126.74 1172.63H1109.88C1109.88 1169.84 1109.29 1167.38 1108.1 1165.25C1106.95 1163.12 1105.19 1161.43 1102.81 1160.2C1100.47 1158.97 1097.52 1158.36 1093.95 1158.36C1090.5 1158.36 1087.63 1158.87 1085.33 1159.9C1083.08 1160.92 1081.38 1162.32 1080.23 1164.08C1079.12 1165.84 1078.57 1167.81 1078.57 1169.99C1078.57 1171.63 1078.96 1173.1 1079.74 1174.42C1080.51 1175.69 1081.68 1176.9 1083.24 1178.04C1084.8 1179.15 1086.73 1180.2 1089.03 1181.18C1091.36 1182.13 1094.07 1183.07 1097.15 1184.01C1102.07 1185.49 1106.38 1187.13 1110.07 1188.93C1113.8 1190.74 1116.9 1192.79 1119.36 1195.09C1121.86 1197.38 1123.72 1199.97 1124.96 1202.84C1126.23 1205.71 1126.86 1208.97 1126.86 1212.62C1126.86 1216.48 1126.1 1219.92 1124.59 1222.96C1123.07 1225.99 1120.89 1228.58 1118.06 1230.71C1115.23 1232.84 1111.83 1234.46 1107.85 1235.57C1103.91 1236.68 1099.5 1237.23 1094.62 1237.23C1090.28 1237.23 1085.97 1236.66 1081.7 1235.51C1077.48 1234.32 1073.64 1232.55 1070.2 1230.22C1066.75 1227.84 1064.01 1224.84 1061.96 1221.23C1059.9 1217.58 1058.88 1213.32 1058.88 1208.44H1075.86C1075.86 1211.27 1076.31 1213.69 1077.21 1215.7C1078.16 1217.67 1079.47 1219.29 1081.15 1220.56C1082.87 1221.79 1084.88 1222.69 1087.18 1223.26C1089.48 1223.84 1091.96 1224.13 1094.62 1224.13C1098.07 1224.13 1100.9 1223.65 1103.11 1222.71C1105.37 1221.73 1107.05 1220.37 1108.16 1218.65C1109.31 1216.93 1109.88 1214.96 1109.88 1212.74Z" fill="white"/>
<circle cx="722" cy="405" r="405" fill="#F59B00"/>
<path d="M761.3 478.366H783.085C772.948 502.583 749.151 519.143 721.501 519.143C684.662 519.143 654.692 489.139 654.692 452.266C654.692 415.392 684.665 385.389 721.501 385.389C747.061 385.389 769.43 399.525 780.659 421.008H761.3C751.378 421.008 743.339 429.056 743.339 438.987V460.39C743.339 470.316 751.378 478.366 761.3 478.366ZM939 300.386V617.279C939 636.423 923.441 652 904.316 652H538.686C519.561 652 504.002 636.423 504.002 617.279V300.386H939ZM852.201 440.318C852.201 430.386 844.162 422.339 834.24 422.339H819.809C806.925 379.357 767.596 349.428 721.501 349.428C664.855 349.428 618.77 395.56 618.77 452.263C618.77 508.966 664.855 555.098 721.501 555.098C769.629 555.098 810.154 522.446 821.234 477.033H834.24C844.162 477.033 852.201 468.986 852.201 459.054V440.318ZM504 264.428V192.721C504 173.577 519.559 158 538.686 158H904.316C923.441 158 939 173.577 939 192.721V264.428H504ZM654.39 214.885C654.39 224.817 662.429 232.864 672.351 232.864H698.732C708.653 232.864 716.692 224.817 716.692 214.885C716.692 204.954 708.653 196.907 698.732 196.907H672.351C662.432 196.907 654.39 204.956 654.39 214.885ZM539.919 214.885C539.919 229.051 551.431 240.574 565.582 240.574C579.733 240.574 591.244 229.053 591.244 214.885C591.244 200.718 579.733 189.2 565.582 189.2C551.431 189.2 539.919 200.72 539.919 214.885Z" fill="white"/>
</svg>
