<svg width="100" height="88" viewBox="0 0 100 88" fill="none" xmlns="http://www.w3.org/2000/svg">
<path d="M9.26692 67.068V68.8794H2.84322V67.068H9.26692ZM3.47217 62.0281V74.2381H1.16602V62.0281H3.47217ZM10.9776 62.0281V74.2381H8.67149V62.0281H10.9776ZM23.2128 67.8227V68.4517C23.2128 69.3745 23.0898 70.2041 22.8438 70.9423C22.5978 71.675 22.2484 72.2983 21.7956 72.8122C21.3427 73.3267 20.8032 73.7207 20.1771 73.995C19.5509 74.2685 18.8549 74.4056 18.0889 74.4056C17.3342 74.4056 16.6409 74.2685 16.0092 73.995C15.3831 73.7207 14.8408 73.3267 14.3824 72.8122C13.9239 72.2983 13.5689 71.675 13.3173 70.9423C13.0657 70.2041 12.94 69.3745 12.94 68.4517V67.8227C12.94 66.8947 13.0657 66.0645 13.3173 65.3321C13.5689 64.5998 13.9211 63.9764 14.374 63.4621C14.8268 62.9421 15.3663 62.5452 15.9925 62.2712C16.6242 61.9973 17.3175 61.8604 18.0722 61.8604C18.8381 61.8604 19.5342 61.9973 20.1603 62.2712C20.7864 62.5452 21.3259 62.9421 21.7788 63.4621C22.2372 63.9764 22.5894 64.5998 22.8354 65.3321C23.087 66.0645 23.2128 66.8947 23.2128 67.8227ZM20.8815 68.4517V67.806C20.8815 67.1407 20.82 66.5565 20.697 66.0533C20.574 65.5446 20.3923 65.1169 20.1519 64.7703C19.9115 64.4236 19.6152 64.1637 19.263 63.9903C18.9108 63.8115 18.5139 63.722 18.0722 63.722C17.6249 63.722 17.228 63.8115 16.8814 63.9903C16.5403 64.1637 16.2496 64.4236 16.0092 64.7703C15.7689 65.1169 15.5844 65.5446 15.4558 66.0533C15.3328 66.5565 15.2713 67.1407 15.2713 67.806V68.4517C15.2713 69.1114 15.3328 69.6958 15.4558 70.2041C15.5844 70.7131 15.7689 71.1439 16.0092 71.4957C16.2552 71.8426 16.5515 72.1051 16.8981 72.2845C17.2448 72.4631 17.6417 72.5525 18.0889 72.5525C18.5362 72.5525 18.9331 72.4631 19.2798 72.2845C19.6264 72.1051 19.9171 71.8426 20.1519 71.4957C20.3923 71.1439 20.574 70.7131 20.697 70.2041C20.82 69.6958 20.8815 69.1114 20.8815 68.4517ZM31.9594 62.0281H34.2655V70.1376C34.2655 71.0712 34.0643 71.8565 33.6617 72.4936C33.2592 73.1252 32.7113 73.6037 32.0181 73.9278C31.3249 74.2464 30.5366 74.4056 29.6533 74.4056C28.7587 74.4056 27.9621 74.2464 27.2632 73.9278C26.5644 73.6037 26.0165 73.1252 25.6195 72.4936C25.2227 71.8565 25.0242 71.0712 25.0242 70.1376V62.0281H27.3304V70.1376C27.3304 70.7076 27.4254 71.1743 27.6155 71.5379C27.8056 71.8953 28.0739 72.1612 28.4205 72.3343C28.7671 72.5074 29.1781 72.5947 29.6533 72.5947C30.134 72.5947 30.545 72.5074 30.886 72.3343C31.2326 72.1612 31.4982 71.8953 31.6826 71.5379C31.8671 71.1743 31.9594 70.7076 31.9594 70.1376V62.0281ZM42.8444 71.0684C42.8444 70.8336 42.8081 70.6238 42.7354 70.4389C42.6683 70.2491 42.5425 70.0788 42.3581 69.9278C42.1791 69.7713 41.9247 69.6203 41.5949 69.4749C41.2707 69.3239 40.8513 69.1673 40.337 69.0052C39.7668 68.8263 39.2356 68.625 38.7436 68.4014C38.2517 68.1778 37.8184 67.9178 37.4439 67.6215C37.0748 67.3252 36.7869 66.9842 36.5801 66.5984C36.3732 66.2071 36.2698 65.7542 36.2698 65.2399C36.2698 64.7367 36.376 64.2783 36.5885 63.8646C36.8065 63.4509 37.114 63.0959 37.5109 62.7995C37.9078 62.4977 38.3747 62.2656 38.9114 62.1035C39.4537 61.9414 40.0519 61.8604 40.706 61.8604C41.6117 61.8604 42.3943 62.0252 43.054 62.3551C43.7193 62.6849 44.2337 63.1322 44.5971 63.6968C44.9605 64.2615 45.1422 64.8961 45.1422 65.6005H42.8444C42.8444 65.2203 42.7633 64.8849 42.6012 64.5941C42.4447 64.3034 42.2042 64.0742 41.88 63.9065C41.5614 63.7388 41.1588 63.655 40.6725 63.655C40.2028 63.655 39.8114 63.7248 39.4984 63.8646C39.1909 64.0043 38.9589 64.1944 38.8024 64.4348C38.6514 64.6752 38.5759 64.9436 38.5759 65.2399C38.5759 65.4635 38.629 65.6648 38.7353 65.8437C38.8415 66.017 39.0008 66.1819 39.2132 66.3385C39.4257 66.4894 39.6885 66.632 40.0015 66.7661C40.3202 66.8947 40.6892 67.0233 41.1085 67.1519C41.7794 67.3532 42.3664 67.5768 42.8695 67.8227C43.3783 68.0687 43.8004 68.3483 44.1358 68.6614C44.4769 68.9744 44.7313 69.3267 44.899 69.718C45.0723 70.1092 45.159 70.5538 45.159 71.0511C45.159 71.5767 45.0555 72.0462 44.8486 72.4603C44.6418 72.8738 44.3455 73.2263 43.9597 73.5171C43.574 73.8073 43.11 74.0282 42.5677 74.1792C42.031 74.3302 41.4299 74.4056 40.7647 74.4056C40.172 74.4056 39.5851 74.3274 39.0036 74.1709C38.4278 74.0088 37.9051 73.7685 37.4354 73.45C36.9658 73.1252 36.5912 72.7173 36.3117 72.2256C36.0322 71.7277 35.8924 71.1466 35.8924 70.4811H38.2069C38.2069 70.8669 38.2684 71.1965 38.3914 71.4707C38.52 71.7387 38.6989 71.9597 38.9281 72.1335C39.163 72.3011 39.4369 72.4237 39.7499 72.5019C40.063 72.5802 40.4013 72.6196 40.7647 72.6196C41.2343 72.6196 41.62 72.5552 41.922 72.4264C42.2295 72.2928 42.4587 72.1079 42.6096 71.8731C42.7662 71.6383 42.8444 71.3703 42.8444 71.0684ZM55.0292 72.4264V74.2381H48.5385V72.4264H55.0292ZM49.2429 62.0281V74.2381H46.9368V62.0281H49.2429ZM54.1823 67.068V68.8375H48.5385V67.068H54.1823ZM55.0041 62.0281V63.8478H48.5385V62.0281H55.0041ZM64.7319 67.068V68.8794H58.3082V67.068H64.7319ZM58.9371 62.0281V74.2381H56.631V62.0281H58.9371ZM66.4426 62.0281V74.2381H64.1364V62.0281H66.4426ZM78.6777 67.8227V68.4517C78.6777 69.3745 78.5551 70.2041 78.3085 70.9423C78.0627 71.675 77.7137 72.2983 77.2608 72.8122C76.8078 73.3267 76.2684 73.7207 75.6423 73.995C75.0156 74.2685 74.3196 74.4056 73.5537 74.4056C72.7988 74.4056 72.1056 74.2685 71.474 73.995C70.848 73.7207 70.3058 73.3267 69.8473 72.8122C69.3889 72.2983 69.0339 71.675 68.7823 70.9423C68.5307 70.2041 68.4049 69.3745 68.4049 68.4517V67.8227C68.4049 66.8947 68.5307 66.0645 68.7823 65.3321C69.0339 64.5998 69.3861 63.9764 69.839 63.4621C70.2919 62.9421 70.8314 62.5452 71.4574 62.2712C72.089 61.9973 72.7822 61.8604 73.5371 61.8604C74.303 61.8604 74.999 61.9973 75.625 62.2712C76.2518 62.5452 76.7912 62.9421 77.2434 63.4621C77.7019 63.9764 78.0544 64.5998 78.3002 65.3321C78.5523 66.0645 78.6777 66.8947 78.6777 67.8227ZM76.3466 68.4517V67.806C76.3466 67.1407 76.285 66.5565 76.1617 66.0533C76.0391 65.5446 75.857 65.1169 75.6167 64.7703C75.3764 64.4236 75.08 64.1637 74.7282 63.9903C74.3757 63.8115 73.9789 63.722 73.5371 63.722C73.0897 63.722 72.6929 63.8115 72.3466 63.9903C72.0052 64.1637 71.7144 64.4236 71.474 64.7703C71.2337 65.1169 71.0495 65.5446 70.9207 66.0533C70.7975 66.5565 70.7365 67.1407 70.7365 67.806V68.4517C70.7365 69.1114 70.7975 69.6958 70.9207 70.2041C71.0495 70.7131 71.2337 71.1439 71.474 71.4957C71.7199 71.8426 72.0163 72.1051 72.3633 72.2845C72.7095 72.4631 73.1063 72.5525 73.5537 72.5525C74.0011 72.5525 74.3979 72.4631 74.7448 72.2845C75.0911 72.1051 75.3819 71.8426 75.6167 71.4957C75.857 71.1439 76.0391 70.7131 76.1617 70.2041C76.285 69.6958 76.3466 69.1114 76.3466 68.4517ZM88.3806 72.4264V74.2381H82.2421V72.4264H88.3806ZM82.938 62.0281V74.2381H80.6319V62.0281H82.938ZM93.571 74.2381H90.938L90.9547 72.4264H93.571C94.2815 72.4264 94.8764 72.2699 95.3577 71.9569C95.8383 71.6383 96.2019 71.1827 96.4477 70.5899C96.6936 69.9922 96.8169 69.2761 96.8169 68.4433V67.8144C96.8169 67.1714 96.7469 66.604 96.607 66.112C96.4671 65.62 96.2601 65.2063 95.9865 64.8709C95.7178 64.5355 95.3854 64.2811 94.9886 64.1078C94.5918 63.9345 94.1361 63.8478 93.6216 63.8478H90.8875V62.0281H93.6216C94.438 62.0281 95.1811 62.165 95.8522 62.439C96.5288 62.7129 97.1133 63.107 97.6049 63.6214C98.1029 64.1302 98.4824 64.7395 98.7455 65.4495C99.0135 66.1595 99.1479 66.9534 99.1479 67.8311V68.4433C99.1479 69.3156 99.0135 70.1092 98.7455 70.8246C98.4824 71.5351 98.1029 72.1446 97.6049 72.6529C97.1133 73.1619 96.526 73.5531 95.8439 73.8274C95.1617 74.1009 94.4041 74.2381 93.571 74.2381ZM92.2296 62.0281V74.2381H89.9235V62.0281H92.2296Z" fill="white"/>
<path d="M26.2414 84.6753V85.5957H22.9437V84.6753H26.2414ZM23.3016 79.3921V85.5957H22.1299V79.3921H23.3016ZM25.811 81.953V82.8519H22.9437V81.953H25.811ZM26.2286 79.3921V80.3166H22.9437V79.3921H26.2286ZM30.992 84.6753V85.5957H27.8732V84.6753H30.992ZM28.2268 79.3921V85.5957H27.0552V79.3921H28.2268ZM35.8874 84.6753V85.5957H32.5897V84.6753H35.8874ZM32.9476 79.3921V85.5957H31.7759V79.3921H32.9476ZM35.4571 81.953V82.8519H32.5897V81.953H35.4571ZM35.8746 79.3921V80.3166H32.5897V79.3921H35.8746ZM40.3313 83.5548H41.5029C41.4717 83.9696 41.3567 84.3374 41.1578 84.658C40.959 84.9766 40.682 85.2266 40.327 85.408C39.9719 85.5901 39.5417 85.6808 39.036 85.6808C38.6469 85.6808 38.2961 85.613 37.9836 85.4766C37.6741 85.3374 37.4085 85.14 37.1869 84.8845C36.9682 84.6254 36.8006 84.3159 36.6842 83.9551C36.5677 83.5915 36.5095 83.1843 36.5095 82.7328V82.2598C36.5095 81.8083 36.5691 81.4004 36.6884 81.0368C36.8077 80.6732 36.9782 80.3637 37.1997 80.1081C37.4241 79.8498 37.6925 79.6504 38.005 79.5112C38.3203 79.372 38.6725 79.3027 39.0616 79.3027C39.5672 79.3027 39.9947 79.3962 40.344 79.5839C40.6934 79.7688 40.9646 80.023 41.1578 80.3464C41.3509 80.6705 41.4674 81.0423 41.5072 81.4627H40.3355C40.3128 81.2016 40.256 80.98 40.1651 80.7979C40.077 80.6164 39.9435 80.4786 39.7646 80.3851C39.5885 80.2882 39.3542 80.2404 39.0616 80.2404C38.8344 80.2404 38.6341 80.2827 38.4608 80.3678C38.2904 80.453 38.1484 80.5811 38.0348 80.7515C37.9212 80.9191 37.836 81.1289 37.7791 81.3817C37.7223 81.6317 37.6939 81.9218 37.6939 82.2508V82.7328C37.6939 83.0479 37.7195 83.3304 37.7706 83.5804C37.8218 83.8304 37.9013 84.0417 38.0092 84.2155C38.1171 84.3886 38.2563 84.5209 38.4268 84.6116C38.5972 84.7023 38.8002 84.748 39.036 84.748C39.3229 84.748 39.5559 84.7023 39.7348 84.6116C39.9166 84.5209 40.0543 84.3872 40.148 84.2106C40.2446 84.0347 40.3057 83.8159 40.3313 83.5548ZM44.9455 79.3921V85.5957H43.7781V79.3921H44.9455ZM46.8713 79.3921V80.3166H41.8736V79.3921H46.8713ZM47.651 79.3921H49.9049C50.3764 79.3921 50.7811 79.4634 51.1191 79.6054C51.4572 79.7473 51.7171 79.9572 51.8989 80.2356C52.0806 80.514 52.1716 80.8568 52.1716 81.2626C52.1716 81.5839 52.1147 81.8616 52.0011 82.0977C51.8875 82.3332 51.727 82.5306 51.5196 82.6899C51.3151 82.8491 51.0737 82.9738 50.7953 83.0652L50.4289 83.2522H48.4392L48.4307 82.3277H49.9177C50.1591 82.3277 50.3594 82.2854 50.5184 82.2002C50.6775 82.1151 50.7968 81.9966 50.8763 81.8464C50.9587 81.6961 50.9999 81.5237 50.9999 81.3311C50.9999 81.1234 50.9601 80.9447 50.8806 80.7937C50.801 80.6407 50.6803 80.523 50.5184 80.4405C50.3565 80.3581 50.152 80.3166 49.9049 80.3166H48.8227V85.5957H47.651V79.3921ZM51.1532 85.5957L49.7174 82.818L50.9572 82.8138L52.4101 85.5361V85.5957H51.1532ZM58.2216 82.336V82.6559C58.2216 83.1248 58.1591 83.5465 58.0342 83.9212C57.9092 84.293 57.7317 84.6102 57.5016 84.8713C57.2715 85.1324 56.9974 85.3332 56.6793 85.4724C56.3612 85.6116 56.0075 85.6808 55.6184 85.6808C55.2349 85.6808 54.8827 85.6116 54.5617 85.4724C54.2436 85.3332 53.9681 85.1324 53.7352 84.8713C53.5023 84.6102 53.3219 84.293 53.1941 83.9212C53.0662 83.5465 53.0024 83.1248 53.0024 82.6559V82.336C53.0024 81.8651 53.0662 81.4433 53.1941 81.0707C53.3219 80.6989 53.5009 80.3824 53.7309 80.1206C53.961 79.8567 54.2351 79.6552 54.5532 79.516C54.8742 79.3768 55.2264 79.3069 55.6099 79.3069C55.999 79.3069 56.3527 79.3768 56.6707 79.516C56.9889 79.6552 57.263 79.8567 57.493 80.1206C57.726 80.3824 57.905 80.6989 58.0299 81.0707C58.1577 81.4433 58.2216 81.8651 58.2216 82.336ZM57.0372 82.6559V82.3277C57.0372 81.9897 57.0059 81.6926 56.9435 81.4371C56.8809 81.1788 56.7886 80.9613 56.6665 80.7854C56.5444 80.6095 56.3938 80.4772 56.2149 80.3893C56.0359 80.2986 55.8342 80.2529 55.6099 80.2529C55.3827 80.2529 55.181 80.2986 55.0049 80.3893C54.8316 80.4772 54.6839 80.6095 54.5617 80.7854C54.4396 80.9613 54.3459 81.1788 54.2806 81.4371C54.218 81.6926 54.1868 81.9897 54.1868 82.3277V82.6559C54.1868 82.9911 54.218 83.2875 54.2806 83.5465C54.3459 83.8048 54.4396 84.0236 54.5617 84.2023C54.6867 84.3782 54.8373 84.5119 55.0134 84.6033C55.1895 84.694 55.3912 84.739 55.6184 84.739C55.8456 84.739 56.0473 84.694 56.2234 84.6033C56.3995 84.5119 56.5472 84.3782 56.6665 84.2023C56.7886 84.0236 56.8809 83.8048 56.9435 83.5465C57.0059 83.2875 57.0372 82.9911 57.0372 82.6559ZM64.1993 79.3921V85.5957H63.0234L60.386 81.2923V85.5957H59.2144V79.3921H60.386L63.0319 83.6995V79.3921H64.1993ZM66.6406 79.3921V85.5957H65.4689V79.3921H66.6406ZM71.5363 83.5548H72.708C72.6768 83.9696 72.5612 84.3374 72.3624 84.658C72.1637 84.9766 71.8867 85.2266 71.5321 85.408C71.1768 85.5901 70.7468 85.6808 70.2406 85.6808C69.852 85.6808 69.5009 85.613 69.1885 85.4766C68.8788 85.3374 68.6133 85.14 68.3917 84.8845C68.173 84.6254 68.0054 84.3159 67.889 83.9551C67.7725 83.5915 67.7143 83.1843 67.7143 82.7328V82.2598C67.7143 81.8083 67.7739 81.4004 67.8933 81.0368C68.0126 80.6732 68.183 80.3637 68.4045 80.1081C68.6289 79.8498 68.8973 79.6504 69.2098 79.5112C69.5252 79.372 69.877 79.3027 70.2662 79.3027C70.7717 79.3027 71.1997 79.3962 71.5487 79.5839C71.8984 79.7688 72.1692 80.023 72.3624 80.3464C72.5556 80.6705 72.672 81.0423 72.7122 81.4627H71.5404C71.5176 81.2016 71.4608 80.98 71.37 80.7979C71.2821 80.6164 71.1484 80.4786 70.9691 80.3851C70.7932 80.2882 70.5591 80.2404 70.2662 80.2404C70.039 80.2404 69.8389 80.2827 69.6658 80.3678C69.4954 80.453 69.3534 80.5811 69.2396 80.7515C69.126 80.9191 69.0408 81.1289 68.984 81.3817C68.9272 81.6317 68.8988 81.9218 68.8988 82.2508V82.7328C68.8988 83.0479 68.9243 83.3304 68.9755 83.5804C69.0266 83.8304 69.1061 84.0417 69.214 84.2155C69.3223 84.3886 69.4615 84.5209 69.6318 84.6116C69.8022 84.7023 70.0051 84.748 70.2406 84.748C70.5279 84.748 70.7606 84.7023 70.9393 84.6116C71.1214 84.5209 71.2592 84.3872 71.3527 84.2106C71.4497 84.0347 71.5106 83.8159 71.5363 83.5548ZM76.8617 83.9849C76.8617 83.8658 76.8437 83.7591 76.8063 83.6656C76.7724 83.5694 76.7087 83.4821 76.6145 83.4059C76.5238 83.3263 76.3943 83.2494 76.2267 83.1753C76.0626 83.0991 75.8493 83.0195 75.5882 82.9371C75.298 82.8464 75.0286 82.7439 74.7786 82.6303C74.5286 82.5167 74.3084 82.3844 74.118 82.2342C73.9303 82.0832 73.7842 81.9101 73.6789 81.7141C73.5743 81.5153 73.5217 81.2854 73.5217 81.0243C73.5217 80.7681 73.5757 80.5354 73.6838 80.3256C73.7939 80.1151 73.9504 79.935 74.1519 79.784C74.3541 79.631 74.591 79.5133 74.8638 79.4308C75.1394 79.3484 75.4428 79.3069 75.7752 79.3069C76.2357 79.3069 76.6332 79.3907 76.9684 79.5583C77.3063 79.7259 77.5674 79.953 77.7523 80.2404C77.9372 80.5271 78.0293 80.8491 78.0293 81.2072H76.8617C76.8617 81.014 76.8209 80.8436 76.7385 80.6961C76.6588 80.5486 76.537 80.4315 76.3721 80.3464C76.2101 80.2612 76.0058 80.2189 75.7586 80.2189C75.5196 80.2189 75.3209 80.2543 75.1616 80.3256C75.0058 80.3962 74.8881 80.4932 74.8084 80.6151C74.7315 80.7369 74.6935 80.8734 74.6935 81.0243C74.6935 81.1379 74.7205 81.2397 74.7745 81.3311C74.8278 81.4191 74.9088 81.5029 75.0169 81.5818C75.1249 81.6587 75.2586 81.7314 75.4178 81.7993C75.5792 81.8651 75.7669 81.9302 75.9802 81.9953C76.3209 82.0977 76.6194 82.2113 76.8749 82.336C77.1332 82.4613 77.3479 82.6033 77.5183 82.7626C77.6914 82.9212 77.8202 83.1005 77.9061 83.2993C77.994 83.498 78.0376 83.7238 78.0376 83.9766C78.0376 84.2439 77.985 84.4821 77.8804 84.6926C77.7752 84.9025 77.6242 85.0818 77.4282 85.2293C77.2322 85.3768 76.9968 85.489 76.7212 85.5659C76.4483 85.6428 76.1429 85.6808 75.805 85.6808C75.5044 85.6808 75.2059 85.6414 74.9102 85.5617C74.618 85.4793 74.352 85.3567 74.1138 85.1954C73.8749 85.0306 73.6851 84.8228 73.5432 84.5728C73.4005 84.32 73.3299 84.025 73.3299 83.6871H74.5058C74.5058 83.8831 74.5369 84.0507 74.5993 84.1899C74.6651 84.3263 74.7558 84.4385 74.8721 84.5264C74.9912 84.6116 75.1304 84.6739 75.2897 84.7134C75.449 84.7536 75.6207 84.7736 75.805 84.7736C76.0439 84.7736 76.2399 84.7404 76.3929 84.6753C76.5494 84.6074 76.6658 84.5133 76.7426 84.3941C76.8223 84.275 76.8617 84.1386 76.8617 83.9849Z" fill="white"/>
<path d="M50.0002 56.0942C65.4902 56.0942 78.0473 43.5371 78.0473 28.0471C78.0473 12.5571 65.4902 0 50.0002 0C34.5102 0 21.9531 12.5571 21.9531 28.0471C21.9531 43.5371 34.5102 56.0942 50.0002 56.0942Z" fill="#F59B00"/>
<path d="M52.7219 33.1279H54.2305C53.5285 34.805 51.8805 35.9518 49.9657 35.9518C47.4145 35.9518 45.3391 33.874 45.3391 31.3204C45.3391 28.7668 47.4147 26.6891 49.9657 26.6891C51.7358 26.6891 53.2849 27.668 54.0625 29.1557H52.7219C52.0348 29.1557 51.478 29.7131 51.478 30.4008V31.883C51.478 32.5704 52.0348 33.1279 52.7219 33.1279ZM65.028 20.8024V42.7479C65.028 44.0737 63.9505 45.1524 62.626 45.1524H37.3054C35.981 45.1524 34.9035 44.0737 34.9035 42.7479V20.8024H65.028ZM59.017 30.493C59.017 29.8052 58.4602 29.2479 57.7731 29.2479H56.7737C55.8815 26.2713 53.1579 24.1987 49.9657 24.1987C46.0429 24.1987 42.8514 27.3934 42.8514 31.3202C42.8514 35.247 46.0429 38.4418 49.9657 38.4418C53.2987 38.4418 56.1051 36.1805 56.8724 33.0356H57.7731C58.4602 33.0356 59.017 32.4783 59.017 31.7905V30.493ZM34.9033 18.3123V13.3464C34.9033 12.0206 35.9808 10.9419 37.3054 10.9419H62.626C63.9505 10.9419 65.028 12.0206 65.028 13.3464V18.3123H34.9033ZM45.3181 14.8813C45.3181 15.5691 45.8749 16.1264 46.562 16.1264H48.3889C49.076 16.1264 49.6327 15.5691 49.6327 14.8813C49.6327 14.1936 49.076 13.6363 48.3889 13.6363H46.562C45.8751 13.6363 45.3181 14.1937 45.3181 14.8813ZM37.3908 14.8813C37.3908 15.8623 38.188 16.6603 39.168 16.6603C40.148 16.6603 40.9451 15.8625 40.9451 14.8813C40.9451 13.9002 40.148 13.1026 39.168 13.1026C38.188 13.1026 37.3908 13.9003 37.3908 14.8813Z" fill="white"/>
</svg>
