<svg width="1306" height="589" viewBox="0 0 1306 589" fill="none" xmlns="http://www.w3.org/2000/svg">
<path d="M537 4H615V424H537V4Z" fill="#F59B00"/>
<path d="M797 4H875V424H797V4Z" fill="#F59B00"/>
<path d="M669 180H797V248H669V180Z" fill="#F59B00"/>
<path d="M987 4H1302V72H987V4Z" fill="#F59B00"/>
<path d="M987 356H1302V424H987V356Z" fill="#F59B00"/>
<path d="M987 180H1270V248H987V180Z" fill="#F59B00"/>
<path d="M220.627 274.97H239.308C230.615 295.755 210.21 309.968 186.501 309.968C154.913 309.968 129.214 284.217 129.214 252.568C129.214 220.919 154.915 195.167 186.501 195.167C208.418 195.167 227.599 207.301 237.228 225.74H220.627C212.12 225.74 205.226 232.647 205.226 241.171V259.541C205.226 268.061 212.12 274.97 220.627 274.97ZM373 122.21V394.199C373 410.63 359.659 424 343.26 424H29.7423C13.3434 424 0.00205233 410.63 0.00205233 394.199V122.21H373ZM298.572 242.313C298.572 233.789 291.679 226.882 283.172 226.882H270.797C259.75 189.991 226.026 164.303 186.501 164.303C137.929 164.303 98.4119 203.898 98.4119 252.566C98.4119 301.234 137.929 340.829 186.501 340.829C227.769 340.829 262.518 312.804 272.019 273.826H283.172C291.679 273.826 298.572 266.919 298.572 258.395V242.313ZM0 91.3474V29.801C0 13.3697 13.3413 0 29.7423 0H343.26C359.659 0 373 13.3697 373 29.801V91.3474H0ZM128.955 48.8248C128.955 57.3491 135.848 64.2561 144.356 64.2561H166.977C175.484 64.2561 182.378 57.3491 182.378 48.8248C182.378 40.3005 175.484 33.3934 166.977 33.3934H144.356C135.85 33.3934 128.955 40.3026 128.955 48.8248ZM30.7998 48.8248C30.7998 60.9826 40.6707 70.8731 52.8046 70.8731C64.9385 70.8731 74.8094 60.9847 74.8094 48.8248C74.8094 36.6649 64.9385 26.7785 52.8046 26.7785C40.6707 26.7785 30.7998 36.6669 30.7998 48.8248Z" fill="white"/>
<path d="M43.5894 528.221V546.351H10.3975V528.221H43.5894ZM15.5962 489.41V587.177H0V489.41H15.5962ZM54.0757 489.41V587.177H38.5239V489.41H54.0757Z" fill="white"/>
<path d="M126.917 536.346V540.308C126.917 547.784 126.22 554.499 124.828 560.452C123.466 566.361 121.525 571.42 119.007 575.628C116.489 579.791 113.512 582.992 110.076 585.23C106.64 587.423 102.848 588.52 98.7012 588.52C94.5245 588.52 90.7032 587.423 87.2374 585.23C83.8012 582.992 80.8093 579.791 78.2618 575.628C75.7439 571.42 73.7888 566.361 72.3965 560.452C71.0339 554.499 70.3526 547.784 70.3526 540.308V536.346C70.3526 528.871 71.0339 522.156 72.3965 516.202C73.7888 510.248 75.7291 505.19 78.2173 501.027C80.7352 496.819 83.7123 493.618 87.1485 491.425C90.6143 489.186 94.4356 488.067 98.6124 488.067C102.76 488.067 106.551 489.186 109.987 491.425C113.453 493.618 116.445 496.819 118.963 501.027C121.481 505.19 123.436 510.248 124.828 516.202C126.22 522.156 126.917 528.871 126.917 536.346ZM111.098 540.308V536.212C111.098 531.377 110.817 527.125 110.254 523.454C109.721 519.738 108.921 516.627 107.855 514.12C106.788 511.614 105.47 509.733 103.9 508.48C102.36 507.182 100.597 506.533 98.6124 506.533C96.5388 506.533 94.7318 507.182 93.1915 508.48C91.6511 509.733 90.3625 511.614 89.3257 514.12C88.289 516.627 87.504 519.738 86.9708 523.454C86.4672 527.125 86.2154 531.377 86.2154 536.212V540.308C86.2154 545.098 86.4672 549.351 86.9708 553.066C87.504 556.737 88.289 559.848 89.3257 562.4C90.3922 564.951 91.6955 566.876 93.2359 568.174C94.8059 569.472 96.6277 570.122 98.7012 570.122C100.686 570.122 102.448 569.472 103.989 568.174C105.529 566.876 106.818 564.951 107.855 562.4C108.921 559.848 109.721 556.737 110.254 553.066C110.817 549.351 111.098 545.098 111.098 540.308Z" fill="white"/>
<path d="M178.296 489.41H193.892V553.267C193.892 560.878 192.841 567.324 190.737 572.606C188.634 577.844 185.687 581.805 181.895 584.491C178.103 587.177 173.645 588.52 168.521 588.52C163.455 588.52 158.997 587.177 155.146 584.491C151.325 581.805 148.333 577.844 146.171 572.606C144.038 567.324 142.971 560.878 142.971 553.267V489.41H158.612V553.267C158.612 557.296 158.997 560.587 159.767 563.138C160.537 565.645 161.663 567.48 163.144 568.644C164.625 569.808 166.417 570.39 168.521 570.39C170.653 570.39 172.446 569.808 173.897 568.644C175.349 567.48 176.445 565.645 177.185 563.138C177.926 560.587 178.296 557.296 178.296 553.267V489.41Z" fill="white"/>
<path d="M245.227 561.191C245.227 559.669 245.079 558.304 244.783 557.095C244.487 555.841 243.939 554.678 243.139 553.603C242.339 552.529 241.184 551.455 239.673 550.38C238.192 549.261 236.237 548.097 233.808 546.888C230.964 545.456 228.224 543.844 225.588 542.054C222.951 540.218 220.596 538.092 218.523 535.675C216.449 533.213 214.805 530.348 213.59 527.08C212.376 523.767 211.769 519.918 211.769 515.531C211.769 511.323 212.391 507.54 213.635 504.183C214.879 500.78 216.612 497.893 218.834 495.521C221.085 493.103 223.721 491.268 226.743 490.014C229.764 488.716 233.067 488.067 236.652 488.067C241.391 488.067 245.568 489.321 249.182 491.827C252.825 494.289 255.669 497.804 257.713 502.37C259.787 506.891 260.823 512.24 260.823 518.418H245.316C245.316 515.956 244.975 513.785 244.294 511.905C243.642 510.024 242.65 508.547 241.317 507.473C239.984 506.398 238.31 505.861 236.296 505.861C234.341 505.861 232.697 506.309 231.364 507.204C230.031 508.1 229.024 509.308 228.342 510.83C227.661 512.307 227.32 513.941 227.32 515.732C227.32 517.209 227.587 518.552 228.12 519.761C228.683 520.925 229.468 522.021 230.475 523.051C231.512 524.081 232.756 525.065 234.208 526.006C235.689 526.946 237.348 527.863 239.184 528.759C242.62 530.415 245.672 532.273 248.338 534.332C251.033 536.346 253.299 538.652 255.136 541.248C257.002 543.8 258.409 546.709 259.357 549.977C260.335 553.245 260.823 556.938 260.823 561.057C260.823 565.444 260.261 569.338 259.135 572.74C258.009 576.142 256.395 579.03 254.292 581.402C252.188 583.73 249.671 585.498 246.738 586.707C243.805 587.916 240.532 588.52 236.918 588.52C233.6 588.52 230.327 587.893 227.098 586.64C223.899 585.342 220.996 583.372 218.389 580.731C215.783 578.045 213.694 574.62 212.124 570.457C210.584 566.249 209.814 561.258 209.814 555.483H225.454C225.454 558.348 225.706 560.766 226.21 562.735C226.713 564.705 227.454 566.294 228.431 567.503C229.409 568.667 230.609 569.517 232.03 570.054C233.452 570.547 235.082 570.793 236.918 570.793C238.903 570.793 240.502 570.368 241.717 569.517C242.931 568.622 243.82 567.458 244.383 566.026C244.946 564.548 245.227 562.937 245.227 561.191Z" fill="white"/>
<path d="M321.578 569.047V587.177H287.098V569.047H321.578ZM292.652 489.41V587.177H277.056V489.41H292.652ZM317.135 528.221V545.747H287.098V528.221H317.135ZM321.712 489.41V507.607H287.098V489.41H321.712Z" fill="white"/>
<path d="M379.756 528.221V546.351H346.564V528.221H379.756ZM351.763 489.41V587.177H336.167V489.41H351.763ZM390.242 489.41V587.177H374.691V489.41H390.242Z" fill="white"/>
<path d="M463.083 536.346V540.308C463.083 547.784 462.387 554.499 460.995 560.452C459.632 566.361 457.692 571.42 455.174 575.628C452.656 579.791 449.679 582.992 446.243 585.23C442.807 587.423 439.015 588.52 434.868 588.52C430.691 588.52 426.87 587.423 423.404 585.23C419.968 582.992 416.976 579.791 414.429 575.628C411.911 571.42 409.956 566.361 408.563 560.452C407.201 554.499 406.519 547.784 406.519 540.308V536.346C406.519 528.871 407.201 522.156 408.563 516.202C409.956 510.248 411.896 505.19 414.384 501.027C416.902 496.819 419.879 493.618 423.315 491.425C426.781 489.186 430.602 488.067 434.779 488.067C438.926 488.067 442.718 489.186 446.154 491.425C449.62 493.618 452.612 496.819 455.13 501.027C457.648 505.19 459.603 510.248 460.995 516.202C462.387 522.156 463.083 528.871 463.083 536.346ZM447.265 540.308V536.212C447.265 531.377 446.984 527.125 446.421 523.454C445.888 519.738 445.088 516.627 444.021 514.12C442.955 511.614 441.637 509.733 440.067 508.48C438.526 507.182 436.764 506.533 434.779 506.533C432.706 506.533 430.899 507.182 429.358 508.48C427.818 509.733 426.529 511.614 425.493 514.12C424.456 516.627 423.671 519.738 423.138 523.454C422.634 527.125 422.382 531.377 422.382 536.212V540.308C422.382 545.098 422.634 549.351 423.138 553.066C423.671 556.737 424.456 559.848 425.493 562.4C426.559 564.951 427.862 566.876 429.403 568.174C430.973 569.472 432.794 570.122 434.868 570.122C436.853 570.122 438.615 569.472 440.156 568.174C441.696 566.876 442.985 564.951 444.021 562.4C445.088 559.848 445.888 556.737 446.421 553.066C446.984 549.351 447.265 545.098 447.265 540.308Z" fill="white"/>
<path d="M522.105 569.047V587.177H489.402V569.047H522.105ZM494.956 489.41V587.177H479.36V489.41H494.956Z" fill="white"/>
<path d="M557.889 587.177H543.537L543.625 569.047H557.889C560.851 569.047 563.354 567.973 565.398 565.824C567.472 563.675 569.042 560.475 570.108 556.222C571.204 551.925 571.752 546.642 571.752 540.375V536.145C571.752 531.445 571.441 527.326 570.819 523.79C570.226 520.208 569.338 517.232 568.153 514.859C566.968 512.442 565.487 510.629 563.709 509.42C561.962 508.211 559.947 507.607 557.667 507.607H543.27V489.41H557.667C562.051 489.41 566.064 490.552 569.708 492.835C573.381 495.073 576.551 498.296 579.217 502.504C581.912 506.667 583.986 511.614 585.438 517.344C586.919 523.029 587.659 529.341 587.659 536.279V540.375C587.659 547.269 586.919 553.581 585.438 559.311C583.986 565.041 581.927 569.987 579.261 574.15C576.595 578.314 573.44 581.537 569.797 583.82C566.183 586.058 562.214 587.177 557.889 587.177ZM552.468 489.41V587.177H536.872V489.41H552.468Z" fill="white"/>
<path d="M679.354 569.047V587.177H644.874V569.047H679.354ZM650.428 489.41V587.177H634.832V489.41H650.428ZM674.911 528.221V545.747H644.874V528.221H674.911ZM679.487 489.41V507.607H644.874V489.41H679.487Z" fill="white"/>
<path d="M736.688 569.047V587.177H703.984V569.047H736.688ZM709.539 489.41V587.177H693.943V489.41H709.539Z" fill="white"/>
<path d="M795.976 569.047V587.177H761.496V569.047H795.976ZM767.05 489.41V587.177H751.454V489.41H767.05ZM791.533 528.221V545.747H761.496V528.221H791.533ZM796.11 489.41V507.607H761.496V489.41H796.11Z" fill="white"/>
<path d="M847.356 554.073H862.907C862.7 560.878 861.486 566.876 859.264 572.069C857.042 577.262 853.962 581.313 850.022 584.223C846.112 587.088 841.49 588.52 836.158 588.52C831.834 588.52 827.968 587.423 824.561 585.23C821.184 583.036 818.311 579.88 815.941 575.762C813.601 571.644 811.809 566.652 810.565 560.788C809.35 554.924 808.743 548.321 808.743 540.979V535.675C808.743 528.333 809.38 521.73 810.654 515.866C811.957 509.957 813.794 504.944 816.163 500.825C818.563 496.662 821.436 493.484 824.783 491.29C828.131 489.097 831.848 488 835.936 488C841.565 488 846.319 489.522 850.199 492.566C854.08 495.61 857.087 499.796 859.219 505.123C861.352 510.405 862.611 516.426 862.996 523.185H847.445C847.385 519.515 846.971 516.448 846.2 513.986C845.43 511.479 844.216 509.599 842.557 508.346C840.898 507.092 838.691 506.466 835.936 506.466C834.011 506.466 832.337 507.003 830.915 508.077C829.493 509.152 828.309 510.853 827.361 513.18C826.413 515.508 825.702 518.53 825.228 522.245C824.783 525.916 824.561 530.348 824.561 535.541V540.979C824.561 546.172 824.769 550.604 825.183 554.275C825.598 557.945 826.265 560.945 827.183 563.272C828.101 565.6 829.286 567.324 830.738 568.443C832.219 569.517 834.026 570.054 836.158 570.054C838.528 570.054 840.528 569.495 842.157 568.376C843.786 567.212 845.045 565.466 845.934 563.138C846.823 560.766 847.296 557.744 847.356 554.073Z" fill="white"/>
<path d="M908.466 489.41V587.177H892.87V489.41H908.466ZM927.928 489.41V507.607H873.852V489.41H927.928Z" fill="white"/>
<path d="M942.739 489.41H968.199C973.176 489.41 977.501 490.529 981.174 492.767C984.847 495.006 987.676 498.318 989.661 502.705C991.675 507.092 992.682 512.509 992.682 518.955C992.682 524.551 992.104 529.229 990.949 532.989C989.794 536.749 988.179 539.86 986.106 542.322C984.062 544.74 981.677 546.732 978.952 548.299L973.842 552.663H952.47L952.381 534.466H968.199C970.184 534.466 971.828 533.929 973.131 532.855C974.435 531.78 975.412 530.258 976.064 528.289C976.745 526.274 977.086 523.879 977.086 521.104C977.086 518.284 976.745 515.866 976.064 513.852C975.383 511.837 974.375 510.293 973.042 509.219C971.739 508.144 970.125 507.607 968.199 507.607H958.335V587.177H942.739V489.41ZM978.152 587.177L963.845 543.934L980.374 543.8L994.859 586.17V587.177H978.152Z" fill="white"/>
<path d="M1065.03 536.346V540.308C1065.03 547.784 1064.34 554.499 1062.95 560.452C1061.58 566.361 1059.64 571.42 1057.12 575.628C1054.61 579.791 1051.63 582.992 1048.19 585.23C1044.76 587.423 1040.97 588.52 1036.82 588.52C1032.64 588.52 1028.82 587.423 1025.35 585.23C1021.92 582.992 1018.93 579.791 1016.38 575.628C1013.86 571.42 1011.91 566.361 1010.51 560.452C1009.15 554.499 1008.47 547.784 1008.47 540.308V536.346C1008.47 528.871 1009.15 522.156 1010.51 516.202C1011.91 510.248 1013.85 505.19 1016.33 501.027C1018.85 496.819 1021.83 493.618 1025.27 491.425C1028.73 489.186 1032.55 488.067 1036.73 488.067C1040.88 488.067 1044.67 489.186 1048.1 491.425C1051.57 493.618 1054.56 496.819 1057.08 501.027C1059.6 505.19 1061.55 510.248 1062.95 516.202C1064.34 522.156 1065.03 528.871 1065.03 536.346ZM1049.22 540.308V536.212C1049.22 531.377 1048.93 527.125 1048.37 523.454C1047.84 519.738 1047.04 516.627 1045.97 514.12C1044.91 511.614 1043.59 509.733 1042.02 508.48C1040.48 507.182 1038.71 506.533 1036.73 506.533C1034.66 506.533 1032.85 507.182 1031.31 508.48C1029.77 509.733 1028.48 511.614 1027.44 514.12C1026.41 516.627 1025.62 519.738 1025.09 523.454C1024.58 527.125 1024.33 531.377 1024.33 536.212V540.308C1024.33 545.098 1024.58 549.351 1025.09 553.066C1025.62 556.737 1026.41 559.848 1027.44 562.4C1028.51 564.951 1029.81 566.876 1031.35 568.174C1032.92 569.472 1034.75 570.122 1036.82 570.122C1038.8 570.122 1040.57 569.472 1042.11 568.174C1043.65 566.876 1044.94 564.951 1045.97 562.4C1047.04 559.848 1047.84 556.737 1048.37 553.066C1048.93 549.351 1049.22 545.098 1049.22 540.308Z" fill="white"/>
<path d="M1135.34 489.41V587.177H1119.79L1096.91 526.341V587.177H1081.31V489.41H1096.91L1119.79 550.246V489.41H1135.34Z" fill="white"/>
<path d="M1169.97 489.41V587.177H1154.42V489.41H1169.97Z" fill="white"/>
<path d="M1225.93 554.073H1241.48C1241.27 560.878 1240.06 566.876 1237.83 572.069C1235.61 577.262 1232.53 581.313 1228.59 584.223C1224.68 587.088 1220.06 588.52 1214.73 588.52C1210.4 588.52 1206.54 587.423 1203.13 585.23C1199.76 583.036 1196.88 579.88 1194.51 575.762C1192.17 571.644 1190.38 566.652 1189.14 560.788C1187.92 554.924 1187.31 548.321 1187.31 540.979V535.675C1187.31 528.333 1187.95 521.73 1189.22 515.866C1190.53 509.957 1192.36 504.944 1194.73 500.825C1197.13 496.662 1200.01 493.484 1203.35 491.29C1206.7 489.097 1210.42 488 1214.51 488C1220.14 488 1224.89 489.522 1228.77 492.566C1232.65 495.61 1235.66 499.796 1237.79 505.123C1239.92 510.405 1241.18 516.426 1241.57 523.185H1226.02C1225.96 519.515 1225.54 516.448 1224.77 513.986C1224 511.479 1222.79 509.599 1221.13 508.346C1219.47 507.092 1217.26 506.466 1214.51 506.466C1212.58 506.466 1210.91 507.003 1209.49 508.077C1208.06 509.152 1206.88 510.853 1205.93 513.18C1204.98 515.508 1204.27 518.53 1203.8 522.245C1203.35 525.916 1203.13 530.348 1203.13 535.541V540.979C1203.13 546.172 1203.34 550.604 1203.75 554.275C1204.17 557.945 1204.84 560.945 1205.75 563.272C1206.67 565.6 1207.86 567.324 1209.31 568.443C1210.79 569.517 1212.6 570.054 1214.73 570.054C1217.1 570.054 1219.1 569.495 1220.73 568.376C1222.36 567.212 1223.62 565.466 1224.5 563.138C1225.39 560.766 1225.87 557.744 1225.93 554.073Z" fill="white"/>
<path d="M1290.37 561.191C1290.37 559.669 1290.22 558.304 1289.93 557.095C1289.63 555.841 1289.08 554.678 1288.28 553.603C1287.48 552.529 1286.33 551.455 1284.82 550.38C1283.33 549.261 1281.38 548.097 1278.95 546.888C1276.11 545.456 1273.37 543.844 1270.73 542.054C1268.09 540.218 1265.74 538.092 1263.66 535.675C1261.59 533.213 1259.95 530.348 1258.73 527.08C1257.52 523.767 1256.91 519.918 1256.91 515.531C1256.91 511.323 1257.53 507.54 1258.78 504.183C1260.02 500.78 1261.75 497.893 1263.98 495.521C1266.23 493.103 1268.86 491.268 1271.89 490.014C1274.91 488.716 1278.21 488.067 1281.79 488.067C1286.53 488.067 1290.71 489.321 1294.32 491.827C1297.97 494.289 1300.81 497.804 1302.86 502.37C1304.93 506.891 1305.97 512.24 1305.97 518.418H1290.46C1290.46 515.956 1290.12 513.785 1289.44 511.905C1288.78 510.024 1287.79 508.547 1286.46 507.473C1285.13 506.398 1283.45 505.861 1281.44 505.861C1279.48 505.861 1277.84 506.309 1276.51 507.204C1275.17 508.1 1274.17 509.308 1273.48 510.83C1272.8 512.307 1272.46 513.941 1272.46 515.732C1272.46 517.209 1272.73 518.552 1273.26 519.761C1273.83 520.925 1274.61 522.021 1275.62 523.051C1276.65 524.081 1277.9 525.065 1279.35 526.006C1280.83 526.946 1282.49 527.863 1284.33 528.759C1287.76 530.415 1290.81 532.273 1293.48 534.332C1296.18 536.346 1298.44 538.652 1300.28 541.248C1302.14 543.8 1303.55 546.709 1304.5 549.977C1305.48 553.245 1305.97 556.938 1305.97 561.057C1305.97 565.444 1305.4 569.338 1304.28 572.74C1303.15 576.142 1301.54 579.03 1299.43 581.402C1297.33 583.73 1294.81 585.498 1291.88 586.707C1288.95 587.916 1285.67 588.52 1282.06 588.52C1278.74 588.52 1275.47 587.893 1272.24 586.64C1269.04 585.342 1266.14 583.372 1263.53 580.731C1260.92 578.045 1258.84 574.62 1257.27 570.457C1255.73 566.249 1254.96 561.258 1254.96 555.483H1270.6C1270.6 558.348 1270.85 560.766 1271.35 562.735C1271.86 564.705 1272.6 566.294 1273.57 567.503C1274.55 568.667 1275.75 569.517 1277.17 570.054C1278.59 570.547 1280.22 570.793 1282.06 570.793C1284.05 570.793 1285.64 570.368 1286.86 569.517C1288.07 568.622 1288.96 567.458 1289.53 566.026C1290.09 564.548 1290.37 562.937 1290.37 561.191Z" fill="white"/>
</svg>
